<?xml version="1.0" encoding="UTF-8"?>
<svg version="1.1" xmlns="http://www.w3.org/2000/svg" width="250" height="250">
<path d="M0 0 C6.5278125 -0.0928125 6.5278125 -0.0928125 13.1875 -0.1875 C14.55156982 -0.21481201 15.91563965 -0.24212402 17.32104492 -0.27026367 C18.40490479 -0.27775635 19.48876465 -0.28524902 20.60546875 -0.29296875 C21.71043701 -0.3086792 22.81540527 -0.32438965 23.95385742 -0.34057617 C28.59921201 0.17880105 32.02577718 2.43093261 35 6 C36.44253171 10.32759514 36.55452401 14.4773886 36 19 C34 22.125 34 22.125 32 24 C32.9590625 25.175625 32.9590625 25.175625 33.9375 26.375 C37.48882173 30.89486402 37.51108388 34.38754187 37 40 C35.61343102 44.08267534 33.84311938 46.82810704 30.17138672 49.1862793 C24.99619891 51.12566551 19.06348898 50.39074184 13.625 50.25 C9.12875 50.1675 4.6325 50.085 0 50 C0 33.5 0 17 0 0 Z M11 9 C11 12.63 11 16.26 11 20 C12.5675 20.061875 14.135 20.12375 15.75 20.1875 C16.63171875 20.22230469 17.5134375 20.25710937 18.421875 20.29296875 C21.49021392 19.94429387 22.79575743 19.12840853 25 17 C25.66666667 14.5 25.66666667 14.5 25 12 C22.79575743 9.87159147 21.49021392 9.05570613 18.421875 8.70703125 C17.09929687 8.75923828 17.09929687 8.75923828 15.75 8.8125 C13.39875 8.9053125 13.39875 8.9053125 11 9 Z M11 29 C11 32.96 11 36.92 11 41 C12.7325 41.061875 14.465 41.12375 16.25 41.1875 C17.22453125 41.22230469 18.1990625 41.25710937 19.203125 41.29296875 C22.37468742 40.96075202 23.67040307 40.11327721 26 38 C25.67 35.69 25.34 33.38 25 31 C20.27537952 28.5614862 16.19845061 28.84482237 11 29 Z " fill="#202020" transform="translate(117,100)"/>
<path d="M0 0 C6.496875 -0.12375 6.496875 -0.12375 13.125 -0.25 C15.15744873 -0.30462402 15.15744873 -0.30462402 17.23095703 -0.36035156 C28.34294569 -0.46301038 28.34294569 -0.46301038 33 4 C36.00126647 8.4018575 36.95693037 12.75199242 36 18 C34.8789926 20.56715548 33.56453122 22.65320316 32 25 C32.639375 25.474375 33.27875 25.94875 33.9375 26.4375 C36.89384298 30.11053219 37.17532989 33.35756953 37 38 C36.20488792 42.76230289 35.06119502 45.14652826 31.24609375 48.21484375 C25.63863192 51.21193542 19.23280246 50.41695461 13.0625 50.25 C8.751875 50.1675 4.44125 50.085 0 50 C0 33.5 0 17 0 0 Z M10 9 C10 12.63 10 16.26 10 20 C11.7325 20.061875 13.465 20.12375 15.25 20.1875 C16.22453125 20.22230469 17.1990625 20.25710937 18.203125 20.29296875 C21.41210056 19.95683304 22.71870538 19.24398373 25 17 C25.66666667 14.5 25.66666667 14.5 25 12 C22.71870538 9.75601627 21.41210056 9.04316696 18.203125 8.70703125 C17.22859375 8.74183594 16.2540625 8.77664062 15.25 8.8125 C13.5175 8.874375 11.785 8.93625 10 9 Z M10 29 C10 32.96 10 36.92 10 41 C11.7325 41.04125 13.465 41.0825 15.25 41.125 C16.22453125 41.14820313 17.1990625 41.17140625 18.203125 41.1953125 C21.06417829 40.99551828 22.65244917 40.62439724 25 39 C26.08223366 36.08995097 26.08223366 36.08995097 26 33 C24.21220342 30.40769496 23.03997185 30.01332395 20 29 C18.27204648 28.93197033 16.54164635 28.91504355 14.8125 28.9375 C12.4303125 28.9684375 12.4303125 28.9684375 10 29 Z " fill="#202020" transform="translate(35,100)"/>
<path d="M0 0 C3.96 0 7.92 0 12 0 C13.14829977 2.269616 14.29371978 4.54060778 15.4375 6.8125 C15.92573242 7.77639648 15.92573242 7.77639648 16.42382812 8.75976562 C17.79232676 11.48265466 19.03483265 14.10449794 20 17 C22.97 11.39 25.94 5.78 29 0 C32.96 0 36.92 0 41 0 C39.6080434 2.98103124 38.21155304 5.95980074 36.8125 8.9375 C36.42513672 9.76830078 36.03777344 10.59910156 35.63867188 11.45507812 C33.68886971 15.59639347 31.67951323 19.52573514 29.25 23.40625 C26.29150436 28.64113247 26.22268355 33.65557206 26.1875 39.5625 C26.16236328 40.57119141 26.13722656 41.57988281 26.11132812 42.61914062 C26.05303723 45.07901638 26.02351433 47.53954605 26 50 C22.37 50 18.74 50 15 50 C15.09023437 48.80890625 15.18046875 47.6178125 15.2734375 46.390625 C15.8325307 29.72130293 9.19840046 17.48446998 1.26928711 3.35058594 C0 1 0 1 0 0 Z " fill="#202020" transform="translate(72,100)"/>
<path d="M0 0 C11.88 0 23.76 0 36 0 C36 2.97 36 5.94 36 9 C31.71 9 27.42 9 23 9 C23 22.53 23 36.06 23 50 C19.7 50 16.4 50 13 50 C13 36.47 13 22.94 13 9 C8.71 9 4.42 9 0 9 C0 6.03 0 3.06 0 0 Z " fill="#202020" transform="translate(179,100)"/>
<path d="M0 0 C3.63 0 7.26 0 11 0 C11 16.83 11 33.66 11 51 C7.37 51 3.74 51 0 51 C0 34.17 0 17.34 0 0 Z " fill="#FF9C2E" transform="translate(160,87)"/>
</svg>
