<?xml version="1.0" encoding="UTF-8"?>
<svg version="1.1" xmlns="http://www.w3.org/2000/svg" width="151" height="99">
<path d="M0 0 C0.67220351 1.93558599 1.33758077 3.87354372 2 5.8125 C2.37125 6.89144531 2.7425 7.97039063 3.125 9.08203125 C4 12 4 12 4 15 C4.99 15 5.98 15 7 15 C7.67155349 17.26949102 8.3373963 19.5403961 9 21.8125 C9.37125 23.07707031 9.7425 24.34164063 10.125 25.64453125 C11 29 11 29 11 32 C10.01 32.99 10.01 32.99 9 34 C9.28617187 34.71542969 9.57234375 35.43085937 9.8671875 36.16796875 C11.578125 40.4453125 13.2890625 44.72265625 15 49 C15.33 44.71 15.66 40.42 16 36 C17.65 36 19.3 36 21 36 C21.65369506 42.35018055 22.23654783 48.61320853 22 55 C21 56 21 56 18.93359375 56.09765625 C18.10988281 56.08605469 17.28617187 56.07445312 16.4375 56.0625 C15.61121094 56.05347656 14.78492187 56.04445312 13.93359375 56.03515625 C13.29550781 56.02355469 12.65742187 56.01195312 12 56 C10.99539469 53.87717331 9.99644398 51.75166979 9 49.625 C8.443125 48.44164062 7.88625 47.25828125 7.3125 46.0390625 C6 43 6 43 6 41 C5.34 41 4.68 41 4 41 C4 45.95 4 50.9 4 56 C1.69 56.66 -0.62 57.32 -3 58 C-5.17003506 59.1932078 -5.17003506 59.1932078 -7 60.5625 C-10.67978747 62.99682094 -13.60382214 63.45047777 -18 64 C-20.10662637 64.95214751 -22.09952138 66.01214971 -24.10546875 67.16015625 C-26 68 -26 68 -30 68 C-33 62.25 -33 62.25 -33 60 C-30.03 59.01 -27.06 58.02 -24 57 C-26.27864583 56.8046875 -28.55729167 56.609375 -30.8359375 56.4140625 C-33 56 -33 56 -35 54 C-35.625 51.375 -35.625 51.375 -36 49 C-37.32 51.31 -38.64 53.62 -40 56 C-43.3 56 -46.6 56 -50 56 C-50.66 54.35 -51.32 52.7 -52 51 C-52.33 51 -52.66 51 -53 51 C-53.495 53.475 -53.495 53.475 -54 56 C-54.33 56 -54.66 56 -55 56 C-55 52.04 -55 48.08 -55 44 C-55.33 47.96 -55.66 51.92 -56 56 C-57.65 56 -59.3 56 -61 56 C-61 49.4 -61 42.8 -61 36 C-58.03 36 -55.06 36 -52 36 C-49.69 41.28 -47.38 46.56 -45 52 C-44.05125 50.1025 -43.1025 48.205 -42.125 46.25 C-40.41666667 42.83333333 -38.70833333 39.41666667 -37 36 C-36.01 36 -35.02 36 -34 36 C-33.67 34.35 -33.34 32.7 -33 31 C-24.86925099 32.69842313 -24.86925099 32.69842313 -20.9375 34.0625 C-17.27774669 35.23050637 -13.81906219 35.6049246 -10 36 C-9.67 36.99 -9.34 37.98 -9 39 C-5.48809191 40.22969878 -5.48809191 40.22969878 -2 41 C-2 40.01 -2 39.02 -2 38 C-4.01448228 36.32429203 -4.01448228 36.32429203 -6.625 34.875 C-7.48351563 34.35679688 -8.34203125 33.83859375 -9.2265625 33.3046875 C-11.94517353 31.87250035 -11.94517353 31.87250035 -14.9375 31.51171875 C-18.52713069 30.91192077 -21.15622874 29.61841388 -24.375 27.9375 C-25.43460938 27.38964844 -26.49421875 26.84179688 -27.5859375 26.27734375 C-28.38257813 25.85582031 -29.17921875 25.43429688 -30 25 C-28.7191375 21.35446828 -27.83328987 19.83328987 -25 17 C-21.04 19.97 -17.08 22.94 -13 26 C-12.34 25.67 -11.68 25.34 -11 25 C-12.47721422 21.54798361 -14.43794001 19.35038064 -17.125 16.75 C-17.84945312 16.04359375 -18.57390625 15.3371875 -19.3203125 14.609375 C-20.15175781 13.81273437 -20.15175781 13.81273437 -21 13 C-19.63016497 9.83884224 -19.0109362 9.0072908 -16 7 C-15.01 7 -14.02 7 -13 7 C-10.921875 9.44921875 -10.921875 9.44921875 -8.75 12.6875 C-8.02296875 13.74324219 -7.2959375 14.79898437 -6.546875 15.88671875 C-5 19 -5 19 -5.54296875 21.59375 C-5.69378906 22.3878125 -5.84460937 23.181875 -6 24 C-4.15637744 26.57087891 -4.15637744 26.57087891 -1.5625 28.8125 C-0.29599609 29.99779297 -0.29599609 29.99779297 0.99609375 31.20703125 C1.65738281 31.79871094 2.31867188 32.39039063 3 33 C2.07662895 30.22988686 0.98174606 28.18148537 -0.5 25.6875 C-2.57690356 22.017517 -3.32050899 19.16188242 -4 15 C-5.26455305 12.37171327 -6.62167581 9.81847803 -8.0390625 7.26953125 C-9 5 -9 5 -8 2 C-5.01540871 0.04457812 -3.73585209 0 0 0 Z M-34 41 C-33 43 -33 43 -33 43 Z M-28 41 C-28 42.65 -28 44.3 -28 46 C-27.67 44.68 -27.34 43.36 -27 42 C-25.68 41.67 -24.36 41.34 -23 41 C-24.65 41 -26.3 41 -28 41 Z M-23 42 C-22.67 42.99 -22.34 43.98 -22 45 C-21.67 44.01 -21.34 43.02 -21 42 C-21.66 42 -22.32 42 -23 42 Z M-35 43 C-35.33 44.32 -35.66 45.64 -36 47 C-35.01 46.34 -34.02 45.68 -33 45 C-33.66 44.34 -34.32 43.68 -35 43 Z M-26 43 C-26 43.66 -26 44.32 -26 45 C-25.34 45 -24.68 45 -24 45 C-24 44.34 -24 43.68 -24 43 C-24.66 43 -25.32 43 -26 43 Z M-54 47 C-53 49 -53 49 -53 49 Z M-6 47 C-5.34 48.32 -4.68 49.64 -4 51 C-3.01 51 -2.02 51 -1 51 C-1 49.68 -1 48.36 -1 47 C-2.65 47 -4.3 47 -6 47 Z M-17 50 C-17 50.66 -17 51.32 -17 52 C-18.32 52.33 -19.64 52.66 -21 53 C-20.67 53.99 -20.34 54.98 -20 56 C-15.52116304 55.55296014 -15.52116304 55.55296014 -12 53 C-12.66 52.67 -13.32 52.34 -14 52 C-12.68 51.34 -11.36 50.68 -10 50 C-12.31 50 -14.62 50 -17 50 Z " fill="#B2EFE8" transform="translate(64,4)"/>
<path d="M0 0 C2.49118953 3.7367843 2.2065226 5.74451819 2.125 10.1875 C2.10695313 11.45980469 2.08890625 12.73210938 2.0703125 14.04296875 C2.03550781 15.50669922 2.03550781 15.50669922 2 17 C2.66 17 3.32 17 4 17 C4.09796875 16.01257813 4.1959375 15.02515625 4.296875 14.0078125 C4.44640625 12.72648438 4.5959375 11.44515625 4.75 10.125 C4.88921875 8.84882813 5.0284375 7.57265625 5.171875 6.2578125 C6 3 6 3 7.875 1.5 C10.98787747 0.76755824 13.10386917 1.81521921 16 3 C12.92482916 14.52164009 12.92482916 14.52164009 11 20 C10.34 20 9.68 20 9 20 C8.34 24.29 7.68 28.58 7 33 C7.81984375 31.21851562 8.6396875 29.43703125 9.484375 27.6015625 C10.57226192 25.2757353 11.66083948 22.95023106 12.75 20.625 C13.28882812 19.449375 13.82765625 18.27375 14.3828125 17.0625 C15.17558594 15.38027344 15.17558594 15.38027344 15.984375 13.6640625 C16.46616211 12.62717285 16.94794922 11.5902832 17.44433594 10.52197266 C19.08966905 7.85463256 20.09341102 7.0365006 23 6 C24.98 7.32 26.96 8.64 29 10 C27.23538409 13.84772347 24.81394105 16.84060121 22.14453125 20.09765625 C21.76683594 20.72542969 21.38914062 21.35320313 21 22 C21.33 22.99 21.66 23.98 22 25 C22.68707031 24.278125 23.37414062 23.55625 24.08203125 22.8125 C24.98308594 21.884375 25.88414063 20.95625 26.8125 20 C28.15248047 18.6078125 28.15248047 18.6078125 29.51953125 17.1875 C32 15 32 15 35 15 C39 19.34285714 39 19.34285714 39 22 C37.11864124 23.66541663 35.25205353 25.18130392 33.25 26.6875 C32.44175781 27.33041992 32.44175781 27.33041992 31.6171875 27.98632812 C27.5622583 31.05719524 27.5622583 31.05719524 24.734375 30.76953125 C24.16203125 30.51558594 23.5896875 30.26164062 23 30 C19.60545724 30 17.34403308 32.73877243 15 35 C14.34 35.99 13.68 36.98 13 38 C16.08964868 37.06592017 18.75367088 36.1539557 21.5 34.4375 C24 33 24 33 26.6875 32.625 C30.84083843 31.84135124 34.0353085 30.06226743 37.73046875 28.05859375 C40 27 40 27 43 27 C44.61949011 29.57213134 45.04408751 30.67669159 44.625 33.75 C44.41875 34.4925 44.2125 35.235 44 36 C42.02 36.66 40.04 37.32 38 38 C41.18762365 40.12508244 43.26512223 40.5020163 47 41 C48.125 48.75 48.125 48.75 47 51 C48.65 51.33 50.3 51.66 52 52 C52 47.71 52 43.42 52 39 C52.33 39 52.66 39 53 39 C53 45.6 53 52.2 53 59 C50.69 59 48.38 59 46 59 C45.67 60.65 45.34 62.3 45 64 C37.51747162 62.62820313 30.94395046 60.07836721 24 57 C24 57.66 24 58.32 24 59 C22.35 59 20.7 59 19 59 C19 57.68 19 56.36 19 55 C17.35 54.67 15.7 54.34 14 54 C13.67 52.02 13.34 50.04 13 48 C14.98 48 16.96 48 19 48 C19 47.01 19 46.02 19 45 C17.02 45.495 17.02 45.495 15 46 C15 45.34 15 44.68 15 44 C13.02 44 11.04 44 9 44 C9.061875 43.21625 9.12375 42.4325 9.1875 41.625 C9.125625 40.75875 9.06375 39.8925 9 39 C8.01 38.34 7.02 37.68 6 37 C6 36.34 6 35.68 6 35 C3.69 35 1.38 35 -1 35 C-1.33 29.72 -1.66 24.44 -2 19 C-3.32 18.67 -4.64 18.34 -6 18 C-6.33 12.39 -6.66 6.78 -7 1 C-4.46578263 -0.26710868 -2.80561762 -0.28056176 0 0 Z M33 39 C34 43 34 43 34 43 Z M24 44 C24 45.32 24 46.64 24 48 C25.65 48 27.3 48 29 48 C29 46.68 29 45.36 29 44 C27.35 44 25.7 44 24 44 Z M30 50 C30 50.99 30 51.98 30 53 C31.94729537 52.15811388 31.94729537 52.15811388 33 51 C33.33 51.99 33.66 52.98 34 54 C34 52.68 34 51.36 34 50 C32.68 50 31.36 50 30 50 Z " fill="#054223" transform="translate(77,1)"/>
<path d="M0 0 C1.61949011 2.57213134 2.04408751 3.67669159 1.625 6.75 C1.41875 7.4925 1.2125 8.235 1 9 C-0.98 9.66 -2.96 10.32 -5 11 C-1.81237635 13.12508244 0.26512223 13.5020163 4 14 C5.125 21.75 5.125 21.75 4 24 C5.65 24.33 7.3 24.66 9 25 C9 20.71 9 16.42 9 12 C9.33 12 9.66 12 10 12 C10 18.6 10 25.2 10 32 C7.69 32 5.38 32 3 32 C2.67 33.65 2.34 35.3 2 37 C-5.48252838 35.62820313 -12.05604954 33.07836721 -19 30 C-19 30.66 -19 31.32 -19 32 C-20.65 32 -22.3 32 -24 32 C-24 30.68 -24 29.36 -24 28 C-25.65 27.67 -27.3 27.34 -29 27 C-29.33 25.02 -29.66 23.04 -30 21 C-28.02 21 -26.04 21 -24 21 C-24 20.01 -24 19.02 -24 18 C-25.32 18.33 -26.64 18.66 -28 19 C-28 18.34 -28 17.68 -28 17 C-29.98 17 -31.96 17 -34 17 C-33.67 15.35 -33.34 13.7 -33 12 C-32.40832031 11.81824219 -31.81664063 11.63648438 -31.20703125 11.44921875 C-27.67727465 10.32637611 -24.49474585 9.29914865 -21.3125 7.375 C-19 6 -19 6 -16.3125 5.625 C-12.15916157 4.84135124 -8.9646915 3.06226743 -5.26953125 1.05859375 C-3 0 -3 0 0 0 Z M-10 12 C-9 16 -9 16 -9 16 Z M-19 17 C-19 18.32 -19 19.64 -19 21 C-17.35 21 -15.7 21 -14 21 C-14 19.68 -14 18.36 -14 17 C-15.65 17 -17.3 17 -19 17 Z M-13 23 C-13 23.99 -13 24.98 -13 26 C-11.05270463 25.15811388 -11.05270463 25.15811388 -10 24 C-9.67 24.99 -9.34 25.98 -9 27 C-9 25.68 -9 24.36 -9 23 C-10.32 23 -11.64 23 -13 23 Z " fill="#AED6C7" transform="translate(120,28)"/>
<path d="M0 0 C0.67220351 1.93558599 1.33758077 3.87354372 2 5.8125 C2.37125 6.89144531 2.7425 7.97039063 3.125 9.08203125 C4 12 4 12 4 15 C4.99 15 5.98 15 7 15 C7.67155349 17.26949102 8.3373963 19.5403961 9 21.8125 C9.37125 23.07707031 9.7425 24.34164063 10.125 25.64453125 C11 29 11 29 11 32 C10.34 32.66 9.68 33.32 9 34 C9 34.33 9 34.66 9 35 C7.35 35 5.7 35 4 35 C4 35.66 4 36.32 4 37 C1.625 37.875 1.625 37.875 -2 38 C-4.62802162 36.65622196 -7.00786112 35.11958288 -9.4375 33.4453125 C-12.3496353 31.80279716 -14.71569806 31.52798272 -18 31 C-20.15849727 30.05204682 -22.28530553 29.02878489 -24.375 27.9375 C-25.43460938 27.38964844 -26.49421875 26.84179688 -27.5859375 26.27734375 C-28.38257813 25.85582031 -29.17921875 25.43429688 -30 25 C-28.7191375 21.35446828 -27.83328987 19.83328987 -25 17 C-21.04 19.97 -17.08 22.94 -13 26 C-12.34 25.67 -11.68 25.34 -11 25 C-12.47721422 21.54798361 -14.43794001 19.35038064 -17.125 16.75 C-17.84945312 16.04359375 -18.57390625 15.3371875 -19.3203125 14.609375 C-19.87460937 14.07828125 -20.42890625 13.5471875 -21 13 C-19.63016497 9.83884224 -19.0109362 9.0072908 -16 7 C-15.01 7 -14.02 7 -13 7 C-10.921875 9.44921875 -10.921875 9.44921875 -8.75 12.6875 C-7.65945312 14.27111328 -7.65945312 14.27111328 -6.546875 15.88671875 C-5 19 -5 19 -5.54296875 21.59375 C-5.69378906 22.3878125 -5.84460938 23.181875 -6 24 C-4.15637744 26.57087891 -4.15637744 26.57087891 -1.5625 28.8125 C-0.71816406 29.60269531 0.12617187 30.39289062 0.99609375 31.20703125 C1.98802734 32.09455078 1.98802734 32.09455078 3 33 C2.07662895 30.22988686 0.98174606 28.18148537 -0.5 25.6875 C-2.57690356 22.017517 -3.32050899 19.16188242 -4 15 C-5.26455305 12.37171327 -6.62167581 9.81847803 -8.0390625 7.26953125 C-9 5 -9 5 -8 2 C-5.01540871 0.04457812 -3.73585209 0 0 0 Z " fill="#246243" transform="translate(64,4)"/>
<path d="M0 0 C2.9719385 1.12451727 5.33440687 2.22293791 8 4 C6.23538409 7.84772347 3.81394105 10.84060121 1.14453125 14.09765625 C0.76683594 14.72542969 0.38914062 15.35320313 0 16 C0.33 16.99 0.66 17.98 1 19 C1.68707031 18.278125 2.37414062 17.55625 3.08203125 16.8125 C4.43361328 15.4203125 4.43361328 15.4203125 5.8125 14 C6.70582031 13.071875 7.59914063 12.14375 8.51953125 11.1875 C11 9 11 9 14 9 C18 13.34285714 18 13.34285714 18 16 C16.11864124 17.66541663 14.25205353 19.18130392 12.25 20.6875 C11.71117188 21.11611328 11.17234375 21.54472656 10.6171875 21.98632812 C6.5622583 25.05719524 6.5622583 25.05719524 3.734375 24.76953125 C3.16203125 24.51558594 2.5896875 24.26164062 2 24 C-1.42116127 24 -3.61731048 26.75709493 -6 29 C-7.8126505 31.16220617 -7.8126505 31.16220617 -9 33 C-10.65 32.67 -12.3 32.34 -14 32 C-15.12623872 28.60078134 -15.02783093 28.06765406 -13.55859375 24.49609375 C-12.86422511 23.13668654 -12.15642554 21.78408154 -11.4375 20.4375 C-11.07197021 19.73165771 -10.70644043 19.02581543 -10.32983398 18.29858398 C-9.23339763 16.19159839 -8.11967497 14.09471262 -7 12 C-6.39414063 10.85789062 -5.78828125 9.71578125 -5.1640625 8.5390625 C-1.23295455 1.23295455 -1.23295455 1.23295455 0 0 Z " fill="#25533F" transform="translate(98,7)"/>
<path d="M0 0 C4.39735712 0.12933403 7.36834467 2.39160281 10.83984375 4.84375 C13.02066625 6.16585772 13.02066625 6.16585772 15.85546875 6.43359375 C19.62696606 7.11293177 22.11493328 8.57023701 25.375 10.5625 C26.43460938 11.20316406 27.49421875 11.84382813 28.5859375 12.50390625 C29.78089844 13.24447266 29.78089844 13.24447266 31 14 C29.125 18.75 29.125 18.75 28 21 C24.29496359 20.39665691 22.14031852 18.77525763 19.25 16.4375 C18.45078125 15.79683594 17.6515625 15.15617187 16.828125 14.49609375 C16.22484375 14.00238281 15.6215625 13.50867188 15 13 C14.01 13.495 14.01 13.495 13 14 C14.46976464 17.45007911 16.40918519 19.56493084 19.125 22.125 C20.45394723 23.37827763 21.75547173 24.66285567 23 26 C23 26.66 23 27.32 23 28 C21.37373596 29.38232443 19.7074998 30.71937515 18 32 C13.91403748 30.47236536 12.20173821 27.88915809 9.75 24.375 C9.04359375 23.37210938 8.3371875 22.36921875 7.609375 21.3359375 C6.81273438 20.17964844 6.81273438 20.17964844 6 19 C6.66 17.68 7.32 16.36 8 15 C7.44570312 14.48050781 6.89140625 13.96101563 6.3203125 13.42578125 C5.59585938 12.72839844 4.87140625 12.03101562 4.125 11.3125 C3.40570313 10.62800781 2.68640625 9.94351563 1.9453125 9.23828125 C-0.08335887 6.90408709 -1.02992733 4.91532366 -2 2 C-1.34 1.34 -0.68 0.68 0 0 Z " fill="#0A4627" transform="translate(88,57)"/>
<path d="M0 0 C2.97 0 5.94 0 9 0 C11.31 5.28 13.62 10.56 16 16 C16.94875 14.1025 17.8975 12.205 18.875 10.25 C20.58333333 6.83333333 22.29166667 3.41666667 24 0 C26.64 0.33 29.28 0.66 32 1 C32.89316269 6.93609666 32.97040422 12.06975197 32 18 C31.01 18 30.02 18 29 18 C28.8046875 15.94921875 28.609375 13.8984375 28.4140625 11.84765625 C28.27742188 11.23792969 28.14078125 10.62820312 28 10 C27.34 9.67 26.68 9.34 26 9 C25.9175 9.515625 25.835 10.03125 25.75 10.5625 C24.67859775 14.04455732 22.86476395 16.87200885 21 20 C17.7 20 14.4 20 11 20 C10.34 18.35 9.68 16.7 9 15 C8.67 15 8.34 15 8 15 C7.67 16.65 7.34 18.3 7 20 C6.67 20 6.34 20 6 20 C6 16.04 6 12.08 6 8 C5.67 11.96 5.34 15.92 5 20 C3.35 20 1.7 20 0 20 C0 13.4 0 6.8 0 0 Z M27 5 C28 7 28 7 28 7 Z M7 11 C8 13 8 13 8 13 Z " fill="#B8B7B5" transform="translate(3,40)"/>
<path d="M0 0 C1.32 0.66 2.64 1.32 4 2 C2.72283069 6.08453205 1.20064644 9.81809323 -0.75 13.625 C-1.27335937 14.65367188 -1.79671875 15.68234375 -2.3359375 16.7421875 C-2.88507813 17.81726563 -3.43421875 18.89234375 -4 20 C-5.12703943 22.24897913 -6.25212917 24.49893667 -7.375 26.75 C-8.25 28.5 -9.125 30.25 -10 32 C-12.96175123 31.38722388 -14.38058783 30.74627478 -17 29 C-16.37606349 25.23880524 -14.65226285 22.81039958 -12.4375 19.75 C-11.79683594 18.85796875 -11.15617187 17.9659375 -10.49609375 17.046875 C-10.00238281 16.37140625 -9.50867188 15.6959375 -9 15 C-9.99 14.67 -10.98 14.34 -12 14 C-12.60328125 14.6496875 -13.2065625 15.299375 -13.828125 15.96875 C-14.62734375 16.8040625 -15.4265625 17.639375 -16.25 18.5 C-17.03890625 19.3353125 -17.8278125 20.170625 -18.640625 21.03125 C-21 23 -21 23 -25 23 C-29 18.77777778 -29 18.77777778 -29 16 C-26.96480978 14.46243316 -24.96747605 13.09831296 -22.8125 11.75 C-22.23435547 11.36070313 -21.65621094 10.97140625 -21.06054688 10.5703125 C-19.33203125 9.484375 -19.33203125 9.484375 -16 8 C-13.525 8.99 -13.525 8.99 -11 10 C-7.37 6.7 -3.74 3.4 0 0 Z " fill="#07AB82" transform="translate(67,61)"/>
<path d="M0 0 C2.31 0 4.62 0 7 0 C6.67 4.95 6.34 9.9 6 15 C8.475 15.495 8.475 15.495 11 16 C11.33848652 17.89492006 11.67056911 19.79098466 12 21.6875 C12.185625 22.74324219 12.37125 23.79898438 12.5625 24.88671875 C12.95068074 27.64904062 13.08259976 30.21742043 13 33 C10.69 33 8.38 33 6 33 C6 27.72 6 22.44 6 17 C4.35 17 2.7 17 1 17 C0.86722656 18.07121094 0.73445313 19.14242187 0.59765625 20.24609375 C0.4194944 21.64325769 0.24109681 23.04039159 0.0625 24.4375 C-0.06801758 25.49807617 -0.06801758 25.49807617 -0.20117188 26.58007812 C-0.88671875 31.88671875 -0.88671875 31.88671875 -2 33 C-4.33944736 32.71269945 -6.6739143 32.38063221 -9 32 C-8.41157717 29.18333639 -7.80525764 26.37273568 -7.1875 23.5625 C-7.02185547 22.76005859 -6.85621094 21.95761719 -6.68554688 21.13085938 C-6.22300247 19.06250042 -5.62023759 17.02666263 -5 15 C-4.01 14.67 -3.02 14.34 -2 14 C-1.855625 12.989375 -1.71125 11.97875 -1.5625 10.9375 C-0.78125 5.46875 -0.78125 5.46875 0 0 Z " fill="#186D4C" transform="translate(72,65)"/>
<path d="M0 0 C4.34464536 0.60825035 8.67551867 1.26167392 13 2 C14.125 9.75 14.125 9.75 13 12 C15.475 12.495 15.475 12.495 18 13 C18 8.71 18 4.42 18 0 C18.33 0 18.66 0 19 0 C19 6.6 19 13.2 19 20 C16.69 20 14.38 20 12 20 C12 20.99 12 21.98 12 23 C6.72684667 22.5547115 1.98229776 21.91626837 -3 20 C-2.67 18.35 -2.34 16.7 -2 15 C-1.34 15 -0.68 15 0 15 C0 13.35 0 11.7 0 10 C-0.66 10 -1.32 10 -2 10 C-2 8.68 -2 7.36 -2 6 C-1.34 6 -0.68 6 0 6 C0 4.02 0 2.04 0 0 Z " fill="#8FAFA4" transform="translate(111,40)"/>
<path d="M0 0 C6.6 0 13.2 0 20 0 C20 1.65 20 3.3 20 5 C15.05 5 10.1 5 5 5 C5 5.66 5 6.32 5 7 C9.29 7 13.58 7 18 7 C18 8.65 18 10.3 18 12 C13.71 12 9.42 12 5 12 C5 12.99 5 13.98 5 15 C9.95 15 14.9 15 20 15 C20 16.65 20 18.3 20 20 C13.4 20 6.8 20 0 20 C0 13.4 0 6.8 0 0 Z " fill="#B5B2B2" transform="translate(131,40)"/>
<path d="M0 0 C0.81498562 1.6029053 1.62689927 3.20737278 2.4375 4.8125 C3.11619141 6.15248047 3.11619141 6.15248047 3.80859375 7.51953125 C5 10 5 10 6 13 C6.33 8.71 6.66 4.42 7 0 C8.65 0 10.3 0 12 0 C12.65369506 6.35018055 13.23654783 12.61320853 13 19 C12 20 12 20 9.93359375 20.09765625 C9.10988281 20.08605469 8.28617188 20.07445313 7.4375 20.0625 C6.19806641 20.04896484 6.19806641 20.04896484 4.93359375 20.03515625 C3.97646484 20.01775391 3.97646484 20.01775391 3 20 C1.99539469 17.87717331 0.99644398 15.75166979 0 13.625 C-0.556875 12.44164062 -1.11375 11.25828125 -1.6875 10.0390625 C-3 7 -3 7 -3 5 C-3.66 5 -4.32 5 -5 5 C-5 9.95 -5 14.9 -5 20 C-6.65 20 -8.3 20 -10 20 C-10 14.06 -10 8.12 -10 2 C-5.7900275 0.316011 -4.21047434 -0.24059853 0 0 Z " fill="#E2F1EB" transform="translate(73,40)"/>
<path d="M0 0 C0.67220351 1.93558599 1.33758077 3.87354372 2 5.8125 C2.556875 7.43091797 2.556875 7.43091797 3.125 9.08203125 C4 12 4 12 4 15 C4.99 15 5.98 15 7 15 C7.67155349 17.26949102 8.3373963 19.5403961 9 21.8125 C9.37125 23.07707031 9.7425 24.34164063 10.125 25.64453125 C11 29 11 29 11 32 C9.02 32.66 7.04 33.32 5 34 C4.03697644 32.44038638 3.07978996 30.87716775 2.125 29.3125 C1.32449219 28.00732422 1.32449219 28.00732422 0.5078125 26.67578125 C-1.40508488 23.28113176 -2.71976192 19.90076525 -3.875 16.1875 C-5.05284618 12.85026917 -6.57203125 9.91512423 -8.29296875 6.83203125 C-9 5 -9 5 -8 2 C-5.01540871 0.04457812 -3.73585209 0 0 0 Z " fill="#074E29" transform="translate(64,4)"/>
<path d="M0 0 C0.99 0 1.98 0 3 0 C3.28515625 2.265625 3.28515625 2.265625 3 5 C-1.88480138 9.9929157 -7.11447404 12.3624513 -14 13 C-16.10880175 13.94876147 -18.09906893 15.01189077 -20.10546875 16.16015625 C-22 17 -22 17 -26 17 C-29 11.25 -29 11.25 -29 9 C-25.96050982 8.0139883 -22.91805824 7.03743875 -19.875 6.0625 C-19.0190625 5.78470703 -18.163125 5.50691406 -17.28125 5.22070312 C-12.86715956 3.81158964 -8.61333499 2.5974647 -4 2 C-4 2.66 -4 3.32 -4 4 C-2.68 3.67 -1.36 3.34 0 3 C0 2.01 0 1.02 0 0 Z " fill="#066B3A" transform="translate(60,55)"/>
<path d="M0 0 C2.265625 -0.3515625 2.265625 -0.3515625 5 0 C6.984375 2.4140625 6.984375 2.4140625 8.75 5.625 C9.34296875 6.66914062 9.9359375 7.71328125 10.546875 8.7890625 C11.98230088 11.96089066 12.46734566 14.58554912 13 18 C14.1524581 20.71074655 14.1524581 20.71074655 15.5625 23.25 C18 27.80736544 18 27.80736544 18 30 C15.83455859 31.31473228 14.52921949 32.04478011 11.96875 31.828125 C10 31 10 31 8.953125 29.07421875 C8.72109375 28.28660156 8.4890625 27.49898437 8.25 26.6875 C8.00765625 25.90761719 7.7653125 25.12773438 7.515625 24.32421875 C7 22 7 22 7 18 C6.01 17.67 5.02 17.34 4 17 C3.05078125 13.83984375 3.05078125 13.83984375 2.3125 9.9375 C2.06113281 8.64714844 1.80976562 7.35679688 1.55078125 6.02734375 C1.36902344 5.02832031 1.18726562 4.02929688 1 3 C0.34 3 -0.32 3 -1 3 C-0.67 2.01 -0.34 1.02 0 0 Z " fill="#0E4F2F" transform="translate(81,63)"/>
<path d="M0 0 C1.60367292 2.54700993 2.06442578 3.61401546 1.55859375 6.64453125 C1.37425781 7.42183594 1.18992187 8.19914062 1 9 C-7.63166879 11.86019794 -15.79350318 14.27497379 -25 13 C-25.99 12.34 -26.98 11.68 -28 11 C-22.91470301 7.93752115 -18.88101587 5.96016586 -13 5 C-10.37051589 3.77208053 -7.82048119 2.44182774 -5.26953125 1.05859375 C-3 0 -3 0 0 0 Z " fill="#3D826A" transform="translate(120,28)"/>
<path d="M0 0 C1.32 0.66 2.64 1.32 4 2 C3.34 3.32 2.68 4.64 2 6 C2 4.68 2 3.36 2 2 C0.72486237 3.07826365 -0.54492569 4.16285519 -1.8125 5.25 C-2.52019531 5.85328125 -3.22789063 6.4565625 -3.95703125 7.078125 C-5.920251 8.92497799 -7.39357558 10.84748229 -9 13 C-9.7425 13.433125 -10.485 13.86625 -11.25 14.3125 C-14.50308091 16.30870874 -16.71870716 18.74627149 -19.25390625 21.57421875 C-21 23 -21 23 -25 23 C-29 18.77777778 -29 18.77777778 -29 16 C-26.96480978 14.46243316 -24.96747605 13.09831296 -22.8125 11.75 C-22.23435547 11.36070313 -21.65621094 10.97140625 -21.06054688 10.5703125 C-19.33203125 9.484375 -19.33203125 9.484375 -16 8 C-13.525 8.99 -13.525 8.99 -11 10 C-7.37 6.7 -3.74 3.4 0 0 Z " fill="#098C58" transform="translate(67,61)"/>
<path d="M0 0 C1.27875 0.20625 2.5575 0.4125 3.875 0.625 C7 2 7 2 8.4375 5.625 C8.623125 6.73875 8.80875 7.8525 9 9 C7.35 9 5.7 9 4 9 C3.67 8.34 3.34 7.68 3 7 C-2.60124622 5.95211412 -2.60124622 5.95211412 -8 7 C-8 7.99 -8 8.98 -8 10 C-10.31 10 -12.62 10 -15 10 C-12.20574493 1.01846584 -9.37477086 -1.75133082 0 0 Z " fill="#C8EADF" transform="translate(52,50)"/>
<path d="M0 0 C2.49118953 3.7367843 2.2065226 5.74451819 2.125 10.1875 C2.10695313 11.45980469 2.08890625 12.73210938 2.0703125 14.04296875 C2.03550781 15.50669922 2.03550781 15.50669922 2 17 C0.35 16.67 -1.3 16.34 -3 16 C-3 16.66 -3 17.32 -3 18 C-3.99 18 -4.98 18 -6 18 C-6.33 12.39 -6.66 6.78 -7 1 C-4.46578263 -0.26710868 -2.80561762 -0.28056176 0 0 Z " fill="#022511" transform="translate(77,1)"/>
<path d="M0 0 C7.59 0 15.18 0 23 0 C23 1.65 23 3.3 23 5 C20.03 5 17.06 5 14 5 C14 6.32 14 7.64 14 9 C12.35 9 10.7 9 9 9 C9 8.01 9 7.02 9 6 C7.68 6.33 6.36 6.66 5 7 C5 6.34 5 5.68 5 5 C3.02 5 1.04 5 -1 5 C-0.67 3.35 -0.34 1.7 0 0 Z " fill="#A0ABA4" transform="translate(87,40)"/>
<path d="M0 0 C4.2252389 4.01764046 5.65249554 8.3240938 6 14 C5.34 14 4.68 14 4 14 C3.67 14.99 3.34 15.98 3 17 C-0.63 13.37 -4.26 9.74 -8 6 C-5.82979469 1.65958937 -4.95602289 0 0 0 Z " fill="#193E29" transform="translate(51,11)"/>
<path d="M0 0 C2.296875 0.78515625 2.296875 0.78515625 5 2 C5.87140625 2.39058594 6.7428125 2.78117187 7.640625 3.18359375 C8.93226562 3.80427734 8.93226562 3.80427734 10.25 4.4375 C11.12140625 4.84871094 11.9928125 5.25992188 12.890625 5.68359375 C15 7 15 7 16 10 C14.5625 12.6875 14.5625 12.6875 13 15 C9.07489083 14.41850235 6.84992176 12.70742568 4 10 C2.52390182 7.72751895 1.28452149 5.39186761 0 3 C-0.66 2.34 -1.32 1.68 -2 1 C-1.34 0.67 -0.68 0.34 0 0 Z " fill="#168262" transform="translate(103,63)"/>
<path d="M0 0 C1.65 0 3.3 0 5 0 C5.65369506 6.35018055 6.23654783 12.61320853 6 19 C5 20 5 20 2.93359375 20.09765625 C2.10988281 20.08605469 1.28617187 20.07445313 0.4375 20.0625 C-0.38878906 20.05347656 -1.21507813 20.04445313 -2.06640625 20.03515625 C-3.02353516 20.01775391 -3.02353516 20.01775391 -4 20 C-4.33 19.34 -4.66 18.68 -5 18 C-3.35 18.33 -1.7 18.66 0 19 C-0.26103516 18.24976563 -0.26103516 18.24976563 -0.52734375 17.484375 C-1.18356789 14.03513078 -0.84798649 10.72177828 -0.5625 7.25 C-0.48418945 6.20392578 -0.48418945 6.20392578 -0.40429688 5.13671875 C-0.27525928 3.42403797 -0.13840386 1.71194934 0 0 Z " fill="#C2CCC6" transform="translate(80,40)"/>
<path d="M0 0 C4.29694258 2.35910573 8.40334113 4.62132046 12 8 C12 8.99 12 9.98 12 11 C10.68 11.99 9.36 12.98 8 14 C4.04 12.02 0.08 10.04 -4 8 C-2 3 -2 3 0 0 Z " fill="#1A4F32" transform="translate(38,21)"/>
<path d="M0 0 C1.00484204 1.95585325 2.00373805 3.91476237 3 5.875 C3.556875 6.96554688 4.11375 8.05609375 4.6875 9.1796875 C6 12 6 12 6 14 C3.8332383 15.31553389 2.53067229 16.04592356 -0.03125 15.82421875 C-2 15 -2 15 -3.046875 13.109375 C-5.40584416 5.19372294 -5.40584416 5.19372294 -5 1 C-3 0 -3 0 0 0 Z " fill="#0C503C" transform="translate(93,79)"/>
<path d="M0 0 C5.11365014 1.0681847 10.07227969 2.23107476 15 4 C14.1875 6.9375 14.1875 6.9375 13 10 C9.23375329 11.25541557 7.62811066 10.37061958 4 9 C4 8.01 4 7.02 4 6 C2.35 6 0.7 6 -1 6 C-0.67 4.02 -0.34 2.04 0 0 Z " fill="#137C47" transform="translate(31,35)"/>
<path d="M0 0 C0.99 0 1.98 0 3 0 C7 4.34285714 7 4.34285714 7 7 C4.20475652 9.8678472 1.01970715 12.8376684 -3.08984375 13.16796875 C-5 12.875 -5 12.875 -8 12 C-5.96158013 7.58342362 -3.44742258 3.44742258 0 0 Z " fill="#155734" transform="translate(109,16)"/>
<path d="M0 0 C0.66 0 1.32 0 2 0 C2.28875 0.61875 2.5775 1.2375 2.875 1.875 C3.93720042 4.13325765 3.93720042 4.13325765 6 6 C-1.23622881 15.38029661 -1.23622881 15.38029661 -5.3125 16.8125 C-5.869375 16.874375 -6.42625 16.93625 -7 17 C-7.33 16.34 -7.66 15.68 -8 15 C-6.85546875 12.28515625 -6.85546875 12.28515625 -5.1875 9.0625 C-4.64480469 8.00160156 -4.10210937 6.94070312 -3.54296875 5.84765625 C-2 3 -2 3 0 0 Z " fill="#0A4225" transform="translate(93,23)"/>
<path d="M0 0 C1.61949011 2.57213134 2.04408751 3.67669159 1.625 6.75 C1.41875 7.4925 1.2125 8.235 1 9 C-0.43344 9.53190541 -1.87195367 10.05015258 -3.3125 10.5625 C-4.11300781 10.85253906 -4.91351563 11.14257812 -5.73828125 11.44140625 C-8 12 -8 12 -11 11 C-9.35 10.34 -7.7 9.68 -6 9 C-6.33 8.01 -6.66 7.02 -7 6 C-9.31 6.66 -11.62 7.32 -14 8 C-13 5 -13 5 -10.8203125 3.61328125 C-9.93085937 3.18402344 -9.04140625 2.75476563 -8.125 2.3125 C-7.24070312 1.87550781 -6.35640625 1.43851563 -5.4453125 0.98828125 C-3 0 -3 0 0 0 Z " fill="#0C653C" transform="translate(120,28)"/>
<path d="M0 0 C1.45184478 4.53701494 2.23509196 8.18061476 2 13 C0.35 13.66 -1.3 14.32 -3 15 C-3.86627399 13.40233897 -4.71766465 11.79660056 -5.5625 10.1875 C-6.03816406 9.29417969 -6.51382813 8.40085937 -7.00390625 7.48046875 C-8 5 -8 5 -7 2 C-4.39757586 0.35179805 -3.13751221 0 0 0 Z " fill="#062C17" transform="translate(63,4)"/>
<path d="M0 0 C2.96175123 0.61277612 4.38058783 1.25372522 7 3 C5.25973426 6.95514941 3.09640211 10.95394589 0 14 C-3.3125 14.4375 -3.3125 14.4375 -6 14 C-4.50829734 9.0276578 -2.39542583 4.58154261 0 0 Z " fill="#084224" transform="translate(99,8)"/>
<path d="M0 0 C-1.32 0.33 -2.64 0.66 -4 1 C-4 1.99 -4 2.98 -4 4 C-3.67 3.34 -3.34 2.68 -3 2 C-2.34 2 -1.68 2 -1 2 C-1.66666667 4.66666667 -2.33333333 7.33333333 -3 10 C3.98533796 11.56901859 3.98533796 11.56901859 11 13 C11 13.66 11 14.32 11 15 C3.51747162 13.62820313 -3.05604954 11.07836721 -10 8 C-10 5.69 -10 3.38 -10 1 C-6.61981469 -0.04005702 -3.5219721 -0.08004482 0 0 Z " fill="#082F18" transform="translate(111,50)"/>
<path d="M0 0 C0.99 0 1.98 0 3 0 C3.28125 2.29296875 3.28125 2.29296875 3 5 C1.03125 6.80078125 1.03125 6.80078125 -1.5 8.3125 C-2.3353125 8.82425781 -3.170625 9.33601563 -4.03125 9.86328125 C-4.6809375 10.23839844 -5.330625 10.61351563 -6 11 C-7.953125 10.1640625 -7.953125 10.1640625 -10 9 C-10.75 6.375 -10.75 6.375 -11 4 C-8 2 -8 2 -4 2 C-4 2.66 -4 3.32 -4 4 C-2.68 3.67 -1.36 3.34 0 3 C0 2.01 0 1.02 0 0 Z " fill="#39A88F" transform="translate(60,55)"/>
<path d="M0 0 C1.32 0 2.64 0 4 0 C4.34833144 4.87664009 3.41685712 7.77050005 1 12 C0.34 12 -0.32 12 -1 12 C-1 12.66 -1 13.32 -1 14 C-3.375 14.125 -3.375 14.125 -6 14 C-8 12 -8 12 -8.1953125 10.0546875 C-8.13020833 8.03645833 -8.06510417 6.01822917 -8 4 C-7.01 4 -6.02 4 -5 4 C-5 6.64 -5 9.28 -5 12 C-4.01 12 -3.02 12 -2 12 C-2 9.36 -2 6.72 -2 4 C-1.34 4 -0.68 4 0 4 C0 2.68 0 1.36 0 0 Z M1 1 C1 1.66 1 2.32 1 3 C1.66 3 2.32 3 3 3 C3 2.34 3 1.68 3 1 C2.34 1 1.68 1 1 1 Z " fill="#298456" transform="translate(37,46)"/>
<path d="M0 0 C0 3.11227195 -0.45627049 5.94152152 -1 9 C-0.01 9 0.98 9 2 9 C2 7.35 2 5.7 2 4 C2.99 4 3.98 4 5 4 C3.77472971 8.05281712 2.30119506 11.44360764 0 15 C-2.96175123 14.38722388 -4.38058783 13.74627478 -7 12 C-6.38801624 8.56049636 -5.07941153 6.48435515 -2.9375 3.75 C-2.38964844 3.04359375 -1.84179688 2.3371875 -1.27734375 1.609375 C-0.85582031 1.07828125 -0.43429688 0.5471875 0 0 Z " fill="#095435" transform="translate(57,78)"/>
<path d="M0 0 C3.125 0.375 3.125 0.375 6 1 C6 1.33 6 1.66 6 2 C4.02 2 2.04 2 0 2 C-0.04898438 2.81984375 -0.09796875 3.6396875 -0.1484375 4.484375 C-0.22320312 5.56203125 -0.29796875 6.6396875 -0.375 7.75 C-0.44460937 8.81734375 -0.51421875 9.8846875 -0.5859375 10.984375 C-0.9728223 13.80206432 -1.55686166 15.5830366 -3 18 C-3.99 18 -4.98 18 -6 18 C-6.33 19.98 -6.66 21.96 -7 24 C-7.66 24 -8.32 24 -9 24 C-9.66 21.03 -10.32 18.06 -11 15 C-10.01 15 -9.02 15 -8 15 C-7.67 14.34 -7.34 13.68 -7 13 C-7 13.99 -7 14.98 -7 16 C-6.01 16 -5.02 16 -4 16 C-3.87882812 15.01257812 -3.75765625 14.02515625 -3.6328125 13.0078125 C-3.46523437 11.72648438 -3.29765625 10.44515625 -3.125 9.125 C-2.96257812 7.84882813 -2.80015625 6.57265625 -2.6328125 5.2578125 C-2 2 -2 2 0 0 Z " fill="#2D5543" transform="translate(85,2)"/>
<path d="M0 0 C0 1.65 0 3.3 0 5 C-5.94 4.67 -11.88 4.34 -18 4 C-18 3.01 -18 2.02 -18 1 C-11.95170514 0.10395632 -6.1105424 -0.11269443 0 0 Z " fill="#B7B6B5" transform="translate(130,55)"/>
<path d="M0 0 C0.87890625 6.15234375 0.87890625 6.15234375 1 8 C0 9 0 9 -1.84765625 9.09765625 C-3.8984375 9.06510417 -5.94921875 9.03255208 -8 9 C-8 6.36 -8 3.72 -8 1 C-5.29120665 -0.35439668 -2.99066732 -0.06501451 0 0 Z " fill="#099E62" transform="translate(124,42)"/>
<path d="M0 0 C0.66 0.33 1.32 0.66 2 1 C1.4225 1.37511719 0.845 1.75023438 0.25 2.13671875 C-0.4925 2.64847656 -1.235 3.16023438 -2 3.6875 C-2.7425 4.18636719 -3.485 4.68523437 -4.25 5.19921875 C-6.27728387 6.90819999 -6.27728387 6.90819999 -6.25 9.70703125 C-6.1675 10.46371094 -6.085 11.22039062 -6 12 C-5.01 12.33 -4.02 12.66 -3 13 C-3.66 13.66 -4.32 14.32 -5 15 C-6.32 15 -7.64 15 -9 15 C-13 10.77777778 -13 10.77777778 -13 8 C-10.90043111 6.50073038 -8.8271391 5.14353977 -6.625 3.8125 C-6.02171875 3.43158203 -5.4184375 3.05066406 -4.796875 2.65820312 C-3.23780048 1.70370306 -1.62150526 0.84409978 0 0 Z " fill="#08683B" transform="translate(51,69)"/>
<path d="M0 0 C1.32 0.33 2.64 0.66 4 1 C3.67 1.99 3.34 2.98 3 4 C3.495 4.45375 3.99 4.9075 4.5 5.375 C6 7 6 7 6 9 C4.9275 9.144375 3.855 9.28875 2.75 9.4375 C0.08337051 9.83749442 -2.41399729 10.27591924 -5 11 C-3.77472971 6.94718288 -2.30119506 3.55639236 0 0 Z " fill="#95CFBB" transform="translate(46,40)"/>
<path d="M0 0 C6.27 0.33 12.54 0.66 19 1 C19 1.66 19 2.32 19 3 C18.278125 2.95875 17.55625 2.9175 16.8125 2.875 C13.9864815 2.81858372 13.9864815 2.81858372 11.625 4.125 C7.9436725 5.35210917 5.57638666 4.26225412 2 3 C2 3.66 2 4.32 2 5 C1.01 5 0.02 5 -1 5 C-0.67 3.35 -0.34 1.7 0 0 Z " fill="#B1D3C4" transform="translate(87,40)"/>
<path d="M0 0 C2.40921705 2.40921705 3.53812156 4.94334509 5 8 C3.02 8 1.04 8 -1 8 C-1 7.34 -1 6.68 -1 6 C-0.34 6 0.32 6 1 6 C0.67 5.34 0.34 4.68 0 4 C-3.31226901 4.48472229 -6.4070824 5.11931725 -9.625 6.0625 C-13 7 -13 7 -17 7 C-17 6.34 -17 5.68 -17 5 C-11.39 3.35 -5.78 1.7 0 0 Z " fill="#23704C" transform="translate(48,59)"/>
<path d="M0 0 C0.99 0 1.98 0 3 0 C3 1.32 3 2.64 3 4 C6.63 4 10.26 4 14 4 C14 5.32 14 6.64 14 8 C8.72684667 7.5547115 3.98229776 6.91626837 -1 5 C-0.67 3.35 -0.34 1.7 0 0 Z " fill="#3BC4A5" transform="translate(109,55)"/>
<path d="M0 0 C2.64 0 5.28 0 8 0 C7.54857225 1.77260631 7.08859477 3.5430368 6.625 5.3125 C6.36976562 6.29863281 6.11453125 7.28476563 5.8515625 8.30078125 C5 11 5 11 3 14 C3.33 11.36 3.66 8.72 4 6 C2.02 6.99 2.02 6.99 0 8 C0 5.36 0 2.72 0 0 Z " fill="#062B18" transform="translate(85,4)"/>
<path d="M0 0 C1.98 0 3.96 0 6 0 C5.01 2.31 4.02 4.62 3 7 C2.01 7 1.02 7 0 7 C0.33 7.99 0.66 8.98 1 10 C0.67 10.66 0.34 11.32 0 12 C-0.99 12 -1.98 12 -3 12 C-3.88336837 9.5332355 -4.1312406 8.36140628 -3.22265625 5.859375 C-2.83980469 5.16328125 -2.45695312 4.4671875 -2.0625 3.75 C-1.68222656 3.04359375 -1.30195312 2.3371875 -0.91015625 1.609375 C-0.60980469 1.07828125 -0.30945312 0.5471875 0 0 Z " fill="#23876B" transform="translate(59,75)"/>
<path d="M0 0 C1.65 0 3.3 0 5 0 C4.67 4.62 4.34 9.24 4 14 C3.01 14 2.02 14 1 14 C0.77213542 12.01432292 0.54427083 10.02864583 0.31640625 8.04296875 C0.02829265 5.80603607 0.02829265 5.80603607 -1 3 C-0.67 2.01 -0.34 1.02 0 0 Z " fill="#B4B1AF" transform="translate(31,44)"/>
<path d="M0 0 C1.65 0 3.3 0 5 0 C5 3.3 5 6.6 5 10 C3.35 10.66 1.7 11.32 0 12 C0 8.04 0 4.08 0 0 Z " fill="#E8F3EF" transform="translate(80,40)"/>
<path d="M0 0 C1.98 0 3.96 0 6 0 C6.33 2.64 6.66 5.28 7 8 C4.69 8 2.38 8 0 8 C0 5.36 0 2.72 0 0 Z " fill="#052F22" transform="translate(78,90)"/>
<path d="M0 0 C0.66 0 1.32 0 2 0 C3.38232443 1.62626404 4.71937515 3.2925002 6 5 C6.66 4.34 7.32 3.68 8 3 C10.125 3.375 10.125 3.375 12 4 C12.33 5.65 12.66 7.3 13 9 C12.34 9 11.68 9 11 9 C10.67 9.99 10.34 10.98 10 12 C8.32737283 10.38113585 6.66204463 8.7547271 5 7.125 C4.071875 6.22007813 3.14375 5.31515625 2.1875 4.3828125 C0 2 0 2 0 0 Z " fill="#043219" transform="translate(44,16)"/>
<path d="M0 0 C2 2 2 2 2.1953125 5.2578125 C2.16050781 7.17207031 2.16050781 7.17207031 2.125 9.125 C2.10695313 10.40632812 2.08890625 11.68765625 2.0703125 13.0078125 C2.04710938 13.99523438 2.02390625 14.98265625 2 16 C0.35 15.67 -1.3 15.34 -3 15 C-3 15.66 -3 16.32 -3 17 C-3.99 17 -4.98 17 -6 17 C-6 15.02 -6 13.04 -6 11 C-3.525 11.495 -3.525 11.495 -1 12 C-0.67 8.04 -0.34 4.08 0 0 Z " fill="#192B21" transform="translate(77,2)"/>
<path d="M0 0 C2.45103548 0.98041419 3.76758786 1.6513818 5.25 3.875 C6 6 6 6 6 10 C2.08597051 8.73058503 0.20927127 7.48832306 -2 4 C-1.34 2.68 -0.68 1.36 0 0 Z " fill="#4EA18C" transform="translate(99,73)"/>
<path d="M0 0 C1.1725131 0.95117134 2.33787015 1.91117009 3.5 2.875 C4.47453125 3.67550781 4.47453125 3.67550781 5.46875 4.4921875 C6.22671875 5.23855469 6.22671875 5.23855469 7 6 C7 6.66 7 7.32 7 8 C3.53846154 11 3.53846154 11 1 11 C-0.38938077 9.03852126 -1.7260411 7.03833424 -3 5 C-1.68 5.33 -0.36 5.66 1 6 C0.67 4.02 0.34 2.04 0 0 Z " fill="#0C8C6F" transform="translate(104,77)"/>
<path d="M0 0 C1.76462683 3.08809695 2 4.23312136 2 8 C-3.875 7.125 -3.875 7.125 -5 6 C-5.04063832 4.33382885 -5.042721 2.66611905 -5 1 C-3 0 -3 0 0 0 Z " fill="#649787" transform="translate(93,79)"/>
<path d="M0 0 C0.33 0 0.66 0 1 0 C1 4.29 1 8.58 1 13 C-0.98 13 -2.96 13 -5 13 C-5 12.34 -5 11.68 -5 11 C-4.34 11 -3.68 11 -3 11 C-2.87625 9.9275 -2.7525 8.855 -2.625 7.75 C-2.10356064 4.62136385 -1.59911746 2.66519576 0 0 Z " fill="#05804B" transform="translate(76,67)"/>
<path d="M0 0 C1.65 0 3.3 0 5 0 C5.33 2.64 5.66 5.28 6 8 C4.02 8 2.04 8 0 8 C0 5.36 0 2.72 0 0 Z " fill="#558F7C" transform="translate(78,82)"/>
<path d="M0 0 C2.125 0.375 2.125 0.375 4 1 C4.33 2.65 4.66 4.3 5 6 C2.625 7.5625 2.625 7.5625 0 9 C-0.66 8.67 -1.32 8.34 -2 8 C-2.125 5.125 -2.125 5.125 -2 2 C-1.34 1.34 -0.68 0.68 0 0 Z " fill="#063E21" transform="translate(88,72)"/>
<path d="M0 0 C0.86625 0.804375 1.7325 1.60875 2.625 2.4375 C5.62876093 4.96924136 8.03203262 5.71657376 12 6 C12 6.33 12 6.66 12 7 C10.35 7 8.7 7 7 7 C7 7.66 7 8.32 7 9 C5.35 9.33 3.7 9.66 2 10 C-0.09350689 6.5980513 -0.17942163 3.94727588 0 0 Z " fill="#4E9372" transform="translate(61,32)"/>
<path d="M0 0 C-0.66666667 2.66666667 -1.33333333 5.33333333 -2 8 C4.98533796 9.56901859 4.98533796 9.56901859 12 11 C12 11.66 12 12.32 12 13 C6.37329439 11.91548758 1.02402007 10.82601129 -4 8 C-5.125 5.5 -5.125 5.5 -5 3 C-3.40083326 0.79162689 -2.76966516 0 0 0 Z " fill="#19533D" transform="translate(110,52)"/>
<path d="M0 0 C6.875 0.875 6.875 0.875 8 2 C8.04063832 3.66617115 8.042721 5.33388095 8 7 C5.6875 7.3125 5.6875 7.3125 3 7 C1.18116991 4.6167054 0 3.04181663 0 0 Z " fill="#19AD7B" transform="translate(55,44)"/>
<path d="M0 0 C5.11365014 1.0681847 10.07227969 2.23107476 15 4 C11.53777385 5.06723961 8.35960734 5.10173486 4.75 5.0625 C3.67234375 5.05347656 2.5946875 5.04445313 1.484375 5.03515625 C0.66453125 5.02355469 -0.1553125 5.01195312 -1 5 C-0.67 3.35 -0.34 1.7 0 0 Z " fill="#10562F" transform="translate(31,35)"/>
<path d="M0 0 C0.66 0.33 1.32 0.66 2 1 C0.35 2.98 -1.3 4.96 -3 7 C-2.01 6.67 -1.02 6.34 0 6 C0.66 6.33 1.32 6.66 2 7 C1.34 8.32 0.68 9.64 0 11 C-1.9375 10.6875 -1.9375 10.6875 -4 10 C-4.33 9.01 -4.66 8.02 -5 7 C-5.99 6.67 -6.98 6.34 -8 6 C-7.67 5.34 -7.34 4.68 -7 4 C-6.01 4 -5.02 4 -4 4 C-1.81222534 2.0624994 -1.81222534 2.0624994 0 0 Z " fill="#2C6851" transform="translate(104,21)"/>
<path d="M0 0 C1.32 0.66 2.64 1.32 4 2 C3.34 3.32 2.68 4.64 2 6 C2 4.68 2 3.36 2 2 C0.72486237 3.07826365 -0.54492569 4.16285519 -1.8125 5.25 C-2.52019531 5.85328125 -3.22789063 6.4565625 -3.95703125 7.078125 C-6.06255232 8.92997574 -6.06255232 8.92997574 -7.57421875 11.234375 C-8.04472656 11.81703125 -8.51523437 12.3996875 -9 13 C-9.99 13 -10.98 13 -12 13 C-10.44997253 9.11602311 -7.99523379 6.97020381 -4.875 4.25 C-3.96492188 3.45078125 -3.05484375 2.6515625 -2.1171875 1.828125 C-1.06917969 0.92320313 -1.06917969 0.92320313 0 0 Z " fill="#296551" transform="translate(67,61)"/>
<path d="M0 0 C0.33 0 0.66 0 1 0 C1.04898438 0.63808594 1.09796875 1.27617188 1.1484375 1.93359375 C1.22320312 2.75988281 1.29796875 3.58617187 1.375 4.4375 C1.44460937 5.26121094 1.51421875 6.08492187 1.5859375 6.93359375 C1.72257812 7.61550781 1.85921875 8.29742187 2 9 C2.66 9.33 3.32 9.66 4 10 C4 7.03 4 4.06 4 1 C4.33 1 4.66 1 5 1 C5 5.29 5 9.58 5 14 C3.35 14 1.7 14 0 14 C0 9.38 0 4.76 0 0 Z " fill="#C5DFD6" transform="translate(63,46)"/>
<path d="M0 0 C0.33 0.66 0.66 1.32 1 2 C-0.07674702 4.28258633 -1.19546116 6.4356434 -2.4375 8.625 C-2.77587891 9.23601563 -3.11425781 9.84703125 -3.46289062 10.4765625 C-4.30146192 11.988353 -5.14982577 13.49470399 -6 15 C-6.66 14.67 -7.32 14.34 -8 14 C-7.34048737 10.76171886 -6.16784772 8.19450407 -4.5625 5.3125 C-4.13066406 4.52488281 -3.69882813 3.73726562 -3.25390625 2.92578125 C-2 1 -2 1 0 0 Z " fill="#65877C" transform="translate(91,24)"/>
<path d="M0 0 C0.99 0 1.98 0 3 0 C4.17176518 2.12232979 5.33754785 4.24757791 6.5 6.375 C6.83386719 6.97828125 7.16773437 7.5815625 7.51171875 8.203125 C10 12.7734375 10 12.7734375 10 15 C5.93875609 13.64625203 5.39684351 11.73741172 3.3125 8.0625 C2.68988281 6.98097656 2.06726562 5.89945313 1.42578125 4.78515625 C0 2 0 2 0 0 Z " fill="#02160A" transform="translate(61,23)"/>
<path d="M0 0 C1.65 0 3.3 0 5 0 C4.67 4.29 4.34 8.58 4 13 C2.19669467 9.39338934 1.53400897 6.91606575 1 3 C0.34 3 -0.32 3 -1 3 C-0.67 2.01 -0.34 1.02 0 0 Z " fill="#277151" transform="translate(81,63)"/>
<path d="M0 0 C0.33 1.32 0.66 2.64 1 4 C1.99 3.01 2.98 2.02 4 1 C4.99 1.33 5.98 1.66 7 2 C7 2.66 7 3.32 7 4 C6.01 4.33 5.02 4.66 4 5 C4 5.99 4 6.98 4 8 C1.69 8 -0.62 8 -3 8 C-1.125 2.25 -1.125 2.25 0 0 Z " fill="#9BC7B1" transform="translate(40,52)"/>
<path d="M0 0 C2.12508244 3.18762365 2.5020163 5.26512223 3 9 C0.6875 8.9375 0.6875 8.9375 -2 8 C-3.8125 4.4375 -3.8125 4.4375 -5 1 C-3.68 1 -2.36 1 -1 1 C-0.67 0.67 -0.34 0.34 0 0 Z " fill="#D7E4DF" transform="translate(77,50)"/>
<path d="M0 0 C0.33 0.66 0.66 1.32 1 2 C2.98 2 4.96 2 7 2 C6.67 3.65 6.34 5.3 6 7 C3.69 6.67 1.38 6.34 -1 6 C-0.67 4.02 -0.34 2.04 0 0 Z " fill="#0C2E20" transform="translate(64,91)"/>
<path d="M0 0 C3.03083716 1.01027905 5.05990924 2.2726918 7.6875 4.0625 C8.49574219 4.61035156 9.30398437 5.15820312 10.13671875 5.72265625 C10.75160156 6.14417969 11.36648437 6.56570312 12 7 C11.67 7.99 11.34 8.98 11 10 C7.04 7.69 3.08 5.38 -1 3 C-0.67 2.01 -0.34 1.02 0 0 Z " fill="#155133" transform="translate(51,32)"/>
<path d="M0 0 C1.98 0 3.96 0 6 0 C6.33 1.32 6.66 2.64 7 4 C5.68 4.99 4.36 5.98 3 7 C1.68 6.01 0.36 5.02 -1 4 C-0.67 2.68 -0.34 1.36 0 0 Z " fill="#0B5B32" transform="translate(43,28)"/>
<path d="M0 0 C3.15947993 4.7392199 4.65067442 9.27406508 4 15 C1 17 1 17 -2 17 C-1.34 15.68 -0.68 14.36 0 13 C0.33 13 0.66 13 1 13 C1.10834375 8.55790643 0.70173653 4.38585329 0 0 Z " fill="#133F28" transform="translate(63,4)"/>
<path d="M0 0 C0.99 0 1.98 0 3 0 C3 2.64 3 5.28 3 8 C4.32 8 5.64 8 7 8 C7 8.66 7 9.32 7 10 C4.625 10.125 4.625 10.125 2 10 C0 8 0 8 -0.1953125 6.0546875 C-0.13020833 4.03645833 -0.06510417 2.01822917 0 0 Z " fill="#608571" transform="translate(29,50)"/>
<path d="M0 0 C0.33 0.66 0.66 1.32 1 2 C0.34 2 -0.32 2 -1 2 C-1 3.32 -1 4.64 -1 6 C-3.64 6.33 -6.28 6.66 -9 7 C-9 8.98 -9 10.96 -9 13 C-9.33 13 -9.66 13 -10 13 C-10.04241723 10.66705225 -10.04092937 8.33297433 -10 6 C-9 5 -9 5 -6.4375 4.9375 C-5.2309375 4.9684375 -5.2309375 4.9684375 -4 5 C-4 3.68 -4 2.36 -4 1 C-2.68 0.67 -1.36 0.34 0 0 Z " fill="#2A7A5F" transform="translate(110,44)"/>
<path d="M0 0 C0.66 0.33 1.32 0.66 2 1 C0.5665848 2.15093925 -0.87188909 3.29558035 -2.3125 4.4375 C-3.11300781 5.07558594 -3.91351563 5.71367188 -4.73828125 6.37109375 C-7 8 -7 8 -10 9 C-10.66 9.66 -11.32 10.32 -12 11 C-12.33 10.01 -12.66 9.02 -13 8 C-10.880788 6.63594382 -8.75551882 5.28368225 -6.625 3.9375 C-6.02171875 3.54755859 -5.4184375 3.15761719 -4.796875 2.75585938 C-3.23507443 1.77539568 -1.62007786 0.88083925 0 0 Z " fill="#25523D" transform="translate(51,69)"/>
<path d="M0 0 C1.98 0 3.96 0 6 0 C5.67 1.98 5.34 3.96 5 6 C3.35 5.67 1.7 5.34 0 5 C0 3.35 0 1.7 0 0 Z " fill="#47937F" transform="translate(67,82)"/>
<path d="M0 0 C0.99 0.33 1.98 0.66 3 1 C2.64950425 4.24208567 2.43778819 5.61527704 -0.0625 7.8125 C-0.701875 8.204375 -1.34125 8.59625 -2 9 C-2.6875 6.75 -2.6875 6.75 -3 4 C-1.5625 1.6875 -1.5625 1.6875 0 0 Z " fill="#1C9067" transform="translate(52,70)"/>
<path d="M0 0 C5.38191955 3.58794636 8.49004873 8.69967012 12 14 C11.01 14 10.02 14 9 14 C7.29476885 12.07388399 5.80449683 10.20475316 4.3125 8.125 C3.89677734 7.56941406 3.48105469 7.01382813 3.05273438 6.44140625 C0 2.28086515 0 2.28086515 0 0 Z " fill="#10201A" transform="translate(94,74)"/>
<path d="M0 0 C0 0.66 0 1.32 0 2 C-0.66 2 -1.32 2 -2 2 C-2 2.66 -2 3.32 -2 4 C-3.65 4 -5.3 4 -7 4 C-7 3.34 -7 2.68 -7 2 C-7.99 1.67 -8.98 1.34 -10 1 C-6.21812119 -0.83691257 -4.05431692 -1.15837626 0 0 Z " fill="#0F9E63" transform="translate(49,63)"/>
<path d="M0 0 C3.15835107 1.39750048 5.32272825 3.05198234 7.75 5.5 C8.67039062 6.41265625 8.67039062 6.41265625 9.609375 7.34375 C11 9 11 9 11 11 C7.584241 9.55661511 5.63973737 7.75105832 3.25 4.9375 C2.63640625 4.22464844 2.0228125 3.51179688 1.390625 2.77734375 C0 1 0 1 0 0 Z " fill="#082715" transform="translate(87,61)"/>
<path d="M0 0 C1.98 0 3.96 0 6 0 C6 1.98 6 3.96 6 6 C4.35 5.67 2.7 5.34 1 5 C0.67 3.35 0.34 1.7 0 0 Z " fill="#0E3E27" transform="translate(90,50)"/>
<path d="M0 0 C0.33 0.99 0.66 1.98 1 3 C1.99 3 2.98 3 4 3 C4.99 6.96 5.98 10.92 7 15 C6.34 14.67 5.68 14.34 5 14 C4.3671875 11.93359375 4.3671875 11.93359375 3.875 9.4375 C3.70742187 8.61121094 3.53984375 7.78492188 3.3671875 6.93359375 C3.24601562 6.29550781 3.12484375 5.65742188 3 5 C1.02 5 -0.96 5 -3 5 C-2.01 3.35 -1.02 1.7 0 0 Z " fill="#1E4E36" transform="translate(67,16)"/>
<path d="M0 0 C2.78637633 4.1795645 1.79562512 6.14668677 1 11 C0.34 11 -0.32 11 -1 11 C-1.66 8.03 -2.32 5.06 -3 2 C-2.01 2 -1.02 2 0 2 C0 1.34 0 0.68 0 0 Z " fill="#224D3D" transform="translate(77,15)"/>
<path d="M0 0 C3.63 0.33 7.26 0.66 11 1 C11 1.66 11 2.32 11 3 C7.37 3 3.74 3 0 3 C0 2.01 0 1.02 0 0 Z " fill="#BEFAF3" transform="translate(112,56)"/>
<path d="M0 0 C0.33 0.66 0.66 1.32 1 2 C2.65 1.67 4.3 1.34 6 1 C6 2.98 6 4.96 6 7 C3.36 5.68 0.72 4.36 -2 3 C-1.34 2.01 -0.68 1.02 0 0 Z " fill="#067441" transform="translate(55,31)"/>
<path d="M0 0 C0 1.32 0 2.64 0 4 C-3.21428571 7 -3.21428571 7 -6 7 C-6.33 6.01 -6.66 5.02 -7 4 C-3.375 0 -3.375 0 0 0 Z " fill="#184E35" transform="translate(112,16)"/>
<path d="M0 0 C1.65 0 3.3 0 5 0 C5 2.31 5 4.62 5 7 C3.0625 6.3125 3.0625 6.3125 1 5 C0.25 2.375 0.25 2.375 0 0 Z " fill="#65B6A0" transform="translate(49,59)"/>
<path d="M0 0 C3.96 0 7.92 0 12 0 C12 0.99 12 1.98 12 3 C10.56163249 2.88541307 9.12429034 2.75790884 7.6875 2.625 C6.88699219 2.55539063 6.08648437 2.48578125 5.26171875 2.4140625 C3 2 3 2 0 0 Z " fill="#05A571" transform="translate(111,60)"/>
<path d="M0 0 C0 0.66 0 1.32 0 2 C0.66 2.33 1.32 2.66 2 3 C-1.08809695 4.76462683 -2.23312136 5 -6 5 C-5.625 3.0625 -5.625 3.0625 -5 1 C-3 0 -3 0 0 0 Z " fill="#09955B" transform="translate(113,34)"/>
<path d="M0 0 C2 2 2 2 2 5 C-0.31 5 -2.62 5 -5 5 C-5.33 3.68 -5.66 2.36 -6 1 C-3.03 1.495 -3.03 1.495 0 2 C0 1.34 0 0.68 0 0 Z " fill="#2B7760" transform="translate(95,85)"/>
<path d="M0 0 C0.66 0.33 1.32 0.66 2 1 C3.70702735 1.06996014 5.41668003 1.08440154 7.125 1.0625 C8.03507812 1.05347656 8.94515625 1.04445313 9.8828125 1.03515625 C10.93082031 1.01775391 10.93082031 1.01775391 12 1 C12.33 1.66 12.66 2.32 13 3 C7.72 3 2.44 3 -3 3 C-3 2.34 -3 1.68 -3 1 C-2.01 0.67 -1.02 0.34 0 0 Z " fill="#1A4330" transform="translate(70,79)"/>
<path d="M0 0 C0.99 0 1.98 0 3 0 C3 1.65 3 3.3 3 5 C0.36 5 -2.28 5 -5 5 C-4.67 4.34 -4.34 3.68 -4 3 C-3.01 3 -2.02 3 -1 3 C-0.67 2.01 -0.34 1.02 0 0 Z " fill="#B1B1B4" transform="translate(107,40)"/>
<path d="M0 0 C0.99 0 1.98 0 3 0 C3.375 2.25 3.375 2.25 3 5 C0 7.3125 0 7.3125 -3 9 C-3 7.68 -3 6.36 -3 5 C-1.68 5 -0.36 5 1 5 C0.67 3.35 0.34 1.7 0 0 Z " fill="#108F6F" transform="translate(60,55)"/>
<path d="M0 0 C-3 1.5 -3 1.5 -6 3 C-6 3.99 -6 4.98 -6 6 C-5.34 6 -4.68 6 -4 6 C-4 6.66 -4 7.32 -4 8 C-5.32 8 -6.64 8 -8 8 C-8 5.69 -8 3.38 -8 1 C-5.29120665 -0.35439668 -2.99066732 -0.06501451 0 0 Z " fill="#2DA577" transform="translate(124,42)"/>
<path d="M0 0 C2.31 0.33 4.62 0.66 7 1 C6.34 1.66 5.68 2.32 5 3 C4.01 3 3.02 3 2 3 C2 3.66 2 4.32 2 5 C1.01 5 0.02 5 -1 5 C-0.67 3.35 -0.34 1.7 0 0 Z " fill="#CAE0D8" transform="translate(87,40)"/>
<path d="M0 0 C0.66 0.33 1.32 0.66 2 1 C0.35 4.3 -1.3 7.6 -3 11 C-3.66 10.67 -4.32 10.34 -5 10 C-3.84414715 6.08788267 -2.64465038 3.1254959 0 0 Z " fill="#1F4639" transform="translate(98,7)"/>
<path d="M0 0 C1.98 0 3.96 0 6 0 C6 1.32 6 2.64 6 4 C4.02 4 2.04 4 0 4 C0 2.68 0 1.36 0 0 Z " fill="#0E5C48" transform="translate(78,90)"/>
<path d="M0 0 C4.08072342 0.55144911 4.91330796 0.91330796 8 4 C4.7 4 1.4 4 -2 4 C-1.34 2.68 -0.68 1.36 0 0 Z " fill="#2B7960" transform="translate(88,57)"/>
<path d="M0 0 C0.33 0 0.66 0 1 0 C1 1.65 1 3.3 1 5 C2.98 5.495 2.98 5.495 5 6 C5 6.99 5 7.98 5 9 C3.35 9 1.7 9 0 9 C0 6.03 0 3.06 0 0 Z " fill="#AAB0AB" transform="translate(96,51)"/>
<path d="M0 0 C0.99 0 1.98 0 3 0 C3 2.64 3 5.28 3 8 C2.01 8 1.02 8 0 8 C0 5.36 0 2.72 0 0 Z " fill="#B7E6CE" transform="translate(32,50)"/>
<path d="M0 0 C1.32 0 2.64 0 4 0 C4 1.98 4 3.96 4 6 C2.68 6 1.36 6 0 6 C0 4.02 0 2.04 0 0 Z " fill="#B2F5EC" transform="translate(112,44)"/>
<path d="M0 0 C2.31 0.33 4.62 0.66 7 1 C6.67 1.99 6.34 2.98 6 4 C5.01 4 4.02 4 3 4 C3 4.66 3 5.32 3 6 C2.01 6 1.02 6 0 6 C0 4.02 0 2.04 0 0 Z " fill="#0D4026" transform="translate(71,13)"/>
<path d="M0 0 C0 3.11227195 -0.45627049 5.94152152 -1 9 C-0.34 9.33 0.32 9.66 1 10 C-0.65 10 -2.3 10 -4 10 C-4.41176754 6.39703406 -4.1535853 5.21597933 -2 2.1875 C-1.34 1.465625 -0.68 0.74375 0 0 Z " fill="#0C6C46" transform="translate(57,78)"/>
<path d="M0 0 C1.98 0.66 3.96 1.32 6 2 C6 2.66 6 3.32 6 4 C4.35 4.33 2.7 4.66 1 5 C0.34 3.68 -0.32 2.36 -1 1 C-0.67 0.67 -0.34 0.34 0 0 Z " fill="#49BB9F" transform="translate(105,66)"/>
<path d="M0 0 C3.84366659 1.2812222 7.39856605 3.15740589 11 5 C9 6 9 6 5.625 5.25 C2.43989717 4.15168868 0.49180933 3.19279221 -2 1 C-1.34 0.67 -0.68 0.34 0 0 Z " fill="#53907C" transform="translate(103,63)"/>
<path d="M0 0 C0.66 0.33 1.32 0.66 2 1 C1.01 2.485 1.01 2.485 0 4 C-0.99 4 -1.98 4 -3 4 C-3.33 5.32 -3.66 6.64 -4 8 C-4.99 7.67 -5.98 7.34 -7 7 C-6.67 6.01 -6.34 5.02 -6 4 C-5.34 4 -4.68 4 -4 4 C-3.67 3.34 -3.34 2.68 -3 2 C-2.01 1.34 -1.02 0.68 0 0 Z " fill="#3B7A5B" transform="translate(54,28)"/>
<path d="M0 0 C1.32 0.33 2.64 0.66 4 1 C4.33 2.32 4.66 3.64 5 5 C2.69 4.67 0.38 4.34 -2 4 C-1.34 2.68 -0.68 1.36 0 0 Z " fill="#0F643D" transform="translate(103,24)"/>
<path d="M0 0 C2.31 0.33 4.62 0.66 7 1 C6.01 1.495 6.01 1.495 5 2 C5 2.66 5 3.32 5 4 C3.35 4 1.7 4 0 4 C0 2.68 0 1.36 0 0 Z " fill="#AEBBB8" transform="translate(111,40)"/>
<path d="M0 0 C1.02104551 0.97850195 2.0206121 1.97980427 3 3 C3 3.33 3 3.66 3 4 C0.03 4 -2.94 4 -6 4 C-3 1 -3 1 0 0 Z " fill="#054120" transform="translate(103,36)"/>
<path d="M0 0 C0.99 0 1.98 0 3 0 C3.38133299 1.9914056 3.71325582 3.99279077 4 6 C3 7 3 7 1.15234375 7.09765625 C-0.8984375 7.06510417 -2.94921875 7.03255208 -5 7 C-2.35261084 5.5393715 -1.10551666 5 2 5 C2 3.68 2 2.36 2 1 C1.34 0.67 0.68 0.34 0 0 Z " fill="#084D2C" transform="translate(121,44)"/>
<path d="M0 0 C1.32 0 2.64 0 4 0 C4.33 1.65 4.66 3.3 5 5 C2.69 4.67 0.38 4.34 -2 4 C-1.34 2.68 -0.68 1.36 0 0 Z " fill="#C6DBD3" transform="translate(50,40)"/>
<path d="M0 0 C1.65 0.99 3.3 1.98 5 3 C3.25 6.875 3.25 6.875 1 8 C0.67 5.36 0.34 2.72 0 0 Z " fill="#24342A" transform="translate(101,8)"/>
<path d="M0 0 C0.99 0.33 1.98 0.66 3 1 C3.33 1.99 3.66 2.98 4 4 C3.67 4.66 3.34 5.32 3 6 C2.01 6 1.02 6 0 6 C-1.125 2.25 -1.125 2.25 0 0 Z " fill="#029769" transform="translate(56,81)"/>
<path d="M0 0 C0 3.20395416 -0.74335022 5.09399739 -2 8 C-2.99 8 -3.98 8 -5 8 C-4.45773019 4.20411134 -2.79872437 2.52788007 0 0 Z " fill="#21AE8B" transform="translate(63,67)"/>
<path d="M0 0 C0.66 0 1.32 0 2 0 C2.36923077 5.53846154 2.36923077 5.53846154 0.5 7.875 C-0.2425 8.431875 -0.2425 8.431875 -1 9 C-1.09765625 2.84765625 -1.09765625 2.84765625 -1 1 C-0.67 0.67 -0.34 0.34 0 0 Z " fill="#088C62" transform="translate(67,63)"/>
<path d="M0 0 C6.27 0 12.54 0 19 0 C19 0.33 19 0.66 19 1 C12.73 1 6.46 1 0 1 C0 0.67 0 0.34 0 0 Z " fill="#B7B4B4" transform="translate(131,61)"/>
<path d="M0 0 C2.40921705 2.40921705 3.53812156 4.94334509 5 8 C3.02 8 1.04 8 -1 8 C-1 7.34 -1 6.68 -1 6 C-0.34 6 0.32 6 1 6 C0.34 4.35 -0.32 2.7 -1 1 C-0.67 0.67 -0.34 0.34 0 0 Z " fill="#132E20" transform="translate(48,59)"/>
<path d="M0 0 C0.33 0 0.66 0 1 0 C1 6.27 1 12.54 1 19 C0.67 19 0.34 19 0 19 C0 12.73 0 6.46 0 0 Z " fill="#BBBFBF" transform="translate(1,41)"/>
<path d="M0 0 C2.50357861 0.8345262 4.66785852 1.79371992 7 3 C7 3.66 7 4.32 7 5 C4.69 4.67 2.38 4.34 0 4 C0 2.68 0 1.36 0 0 Z " fill="#155C36" transform="translate(36,41)"/>
<path d="M0 0 C6.27 0 12.54 0 19 0 C19 0.33 19 0.66 19 1 C12.73 1 6.46 1 0 1 C0 0.67 0 0.34 0 0 Z " fill="#B5B1B0" transform="translate(131,38)"/>
<path d="M0 0 C0.66 0.33 1.32 0.66 2 1 C0.35 2.98 -1.3 4.96 -3 7 C-3.66 6.67 -4.32 6.34 -5 6 C-5 5.34 -5 4.68 -5 4 C-3.37373596 2.61767557 -1.7074998 1.28062485 0 0 Z " fill="#14412E" transform="translate(100,69)"/>
<path d="M0 0 C-0.59927826 3.35595828 -1.84622436 5.37801226 -4 8 C-4.6875 5.6875 -4.6875 5.6875 -5 3 C-3.40083326 0.79162689 -2.76966516 0 0 0 Z " fill="#294F39" transform="translate(110,52)"/>
<path d="M0 0 C0.33 0 0.66 0 1 0 C1.33 2.64 1.66 5.28 2 8 C1.01 8 0.02 8 -1 8 C-1.04241723 5.66705225 -1.04092937 3.33297433 -1 1 C-0.67 0.67 -0.34 0.34 0 0 Z " fill="#031F15" transform="translate(77,28)"/>
<path d="M0 0 C0.99 0.66 1.98 1.32 3 2 C3 2.66 3 3.32 3 4 C1 5.625 1 5.625 -1 7 C-1.66 6.67 -2.32 6.34 -3 6 C-2.01 4.02 -1.02 2.04 0 0 Z " fill="#1C5C46" transform="translate(108,81)"/>
<path d="M0 0 C1.65 0.99 3.3 1.98 5 3 C4.360625 3.12375 3.72125 3.2475 3.0625 3.375 C2.381875 3.58125 1.70125 3.7875 1 4 C0.67 4.66 0.34 5.32 0 6 C-1.125 2.25 -1.125 2.25 0 0 Z " fill="#0EB088" transform="translate(111,68)"/>
<path d="M0 0 C0.66 0 1.32 0 2 0 C1.67 2.64 1.34 5.28 1 8 C0.34 7.67 -0.32 7.34 -1 7 C-0.67 4.69 -0.34 2.38 0 0 Z " fill="#041A0F" transform="translate(72,65)"/>
<path d="M0 0 C-2.33214148 1.20628008 -4.49642139 2.1654738 -7 3 C-7.66 2.34 -8.32 1.68 -9 1 C-5.57367167 -0.61798838 -3.61944899 -1.34053666 0 0 Z " fill="#388261" transform="translate(48,61)"/>
<path d="M0 0 C2.4375 0.375 2.4375 0.375 5 1 C5.33 1.66 5.66 2.32 6 3 C5.67 3.66 5.34 4.32 5 5 C4.01 4.67 3.02 4.34 2 4 C2 3.34 2 2.68 2 2 C1.34 2 0.68 2 0 2 C0 1.34 0 0.68 0 0 Z " fill="#B0F9F4" transform="translate(49,43)"/>
<path d="M0 0 C2.36574234 3.5486135 2.10865265 4.5764525 1.625 8.6875 C1.51414062 9.68136719 1.40328125 10.67523438 1.2890625 11.69921875 C1.19367188 12.45847656 1.09828125 13.21773437 1 14 C0.67 14 0.34 14 0 14 C0 9.38 0 4.76 0 0 Z " fill="#D8ECE5" transform="translate(69,47)"/>
<path d="M0 0 C4.29 0 8.58 0 13 0 C13 0.33 13 0.66 13 1 C8.71 1 4.42 1 0 1 C0 0.67 0 0.34 0 0 Z " fill="#B0B8B9" transform="translate(137,53)"/>
<path d="M0 0 C0.33 0 0.66 0 1 0 C1 3.3 1 6.6 1 10 C0.34 9.34 -0.32 8.68 -1 8 C-0.96712417 5.27130593 -0.43602229 2.7033382 0 0 Z " fill="#0E3A23" transform="translate(69,8)"/>
<path d="M0 0 C0.33 0 0.66 0 1 0 C0.67 3.63 0.34 7.26 0 11 C-0.33 11 -0.66 11 -1 11 C-1.125 3.375 -1.125 3.375 0 0 Z " fill="#1C4635" transform="translate(81,4)"/>
<path d="M0 0 C0.33 0 0.66 0 1 0 C1 2.97 1 5.94 1 9 C-1.08954032 4.82091936 -1.16552619 4.19589427 0 0 Z " fill="#E8F3EE" transform="translate(78,41)"/>
<path d="M0 0 C0.94875 0.04125 1.8975 0.0825 2.875 0.125 C2.545 0.785 2.215 1.445 1.875 2.125 C-0.435 2.125 -2.745 2.125 -5.125 2.125 C-3.125 0.125 -3.125 0.125 0 0 Z " fill="#8EA79A" transform="translate(51.125,36.875)"/>
<path d="M0 0 C3.3 0 6.6 0 10 0 C10 0.33 10 0.66 10 1 C6.7 1 3.4 1 0 1 C0 0.67 0 0.34 0 0 Z " fill="#9ABAAF" transform="translate(76,61)"/>
<path d="M0 0 C0.66 0.99 1.32 1.98 2 3 C1.01 4.32 0.02 5.64 -1 7 C-0.67 4.69 -0.34 2.38 0 0 Z " fill="#104E34" transform="translate(91,12)"/>
<path d="M0 0 C0.33 0.66 0.66 1.32 1 2 C-0.65 2.33 -2.3 2.66 -4 3 C-4.33 2.34 -4.66 1.68 -5 1 C-3.35 0.67 -1.7 0.34 0 0 Z " fill="#79A191" transform="translate(36,60)"/>
<path d="M0 0 C2.97 0 5.94 0 9 0 C9 0.33 9 0.66 9 1 C6.03 1 3.06 1 0 1 C0 0.67 0 0.34 0 0 Z " fill="#C1C6C3" transform="translate(15,61)"/>
<path d="M0 0 C1.32 1.32 2.64 2.64 4 4 C3.01 4.495 3.01 4.495 2 5 C1.34 3.35 0.68 1.7 0 0 Z " fill="#09331D" transform="translate(89,66)"/>
<path d="M0 0 C2.64 0 5.28 0 8 0 C8 0.33 8 0.66 8 1 C5.36 1 2.72 1 0 1 C0 0.67 0 0.34 0 0 Z " fill="#B5B5B3" transform="translate(3,38)"/>
<path d="M0 0 C0.66 0.66 1.32 1.32 2 2 C1.01 3.32 0.02 4.64 -1 6 C-0.67 4.02 -0.34 2.04 0 0 Z " fill="#315745" transform="translate(87,22)"/>
<path d="M0 0 C0.99 0.33 1.98 0.66 3 1 C2.34 2.32 1.68 3.64 1 5 C0.67 3.35 0.34 1.7 0 0 Z " fill="#327D60" transform="translate(72,20)"/>
<path d="M0 0 C0.66 1.32 1.32 2.64 2 4 C1.34 4 0.68 4 0 4 C-0.33 3.01 -0.66 2.02 -1 1 C-0.67 0.67 -0.34 0.34 0 0 Z " fill="#1C462A" transform="translate(59,19)"/>
<path d="M0 0 C0.99 0.495 0.99 0.495 2 1 C1.34 2.32 0.68 3.64 0 5 C0 3.35 0 1.7 0 0 Z " fill="#5B8E7C" transform="translate(84,81)"/>
<path d="M0 0 C0.99 0.495 0.99 0.495 2 1 C1.67 2.32 1.34 3.64 1 5 C0.67 3.35 0.34 1.7 0 0 Z " fill="#2F6A4C" transform="translate(80,67)"/>
<path d="M0 0 C1.65 0 3.3 0 5 0 C3.02 0.99 3.02 0.99 1 2 C0.67 1.34 0.34 0.68 0 0 Z " fill="#90A99E" transform="translate(124,61)"/>
<path d="M0 0 C1.98 0.99 1.98 0.99 4 2 C2.68 2 1.36 2 0 2 C0 1.34 0 0.68 0 0 Z " fill="#4D8F70" transform="translate(44,57)"/>
<path d="M0 0 C0.66 1.32 1.32 2.64 2 4 C1.01 3.67 0.02 3.34 -1 3 C-0.67 2.01 -0.34 1.02 0 0 Z " fill="#144C38" transform="translate(89,52)"/>
<path d="M0 0 C0.99 0 1.98 0 3 0 C3 0.66 3 1.32 3 2 C2.01 2 1.02 2 0 2 C0 1.34 0 0.68 0 0 Z " fill="#77A296" transform="translate(102,46)"/>
<path d="M0 0 C0.66 1.32 1.32 2.64 2 4 C1.01 3.01 0.02 2.02 -1 1 C-0.67 0.67 -0.34 0.34 0 0 Z " fill="#19452E" transform="translate(63,30)"/>
<path d="M0 0 C0.33 0 0.66 0 1 0 C1 1.65 1 3.3 1 5 C0.67 5 0.34 5 0 5 C0 3.35 0 1.7 0 0 Z " fill="#04573E" transform="translate(72,91)"/>
<path d="M0 0 C0.33 0 0.66 0 1 0 C1 1.65 1 3.3 1 5 C0.67 5 0.34 5 0 5 C0 3.35 0 1.7 0 0 Z " fill="#327964" transform="translate(85,87)"/>
<path d="M0 0 C0.33 0 0.66 0 1 0 C1 1.65 1 3.3 1 5 C0.67 5 0.34 5 0 5 C0 3.35 0 1.7 0 0 Z " fill="#29947A" transform="translate(73,85)"/>
<path d="M0 0 C0.33 1.32 0.66 2.64 1 4 C0.34 3.67 -0.32 3.34 -1 3 C-0.67 2.01 -0.34 1.02 0 0 Z " fill="#52665C" transform="translate(27,54)"/>
<path d="M0 0 C0.33 0 0.66 0 1 0 C1 1.65 1 3.3 1 5 C0.67 5 0.34 5 0 5 C0 3.35 0 1.7 0 0 Z " fill="#06BE70" transform="translate(125,43)"/>
<path d="M0 0 C1.65 0 3.3 0 5 0 C5 0.33 5 0.66 5 1 C3.35 1 1.7 1 0 1 C0 0.67 0 0.34 0 0 Z " fill="#57AF8F" transform="translate(119,40)"/>
<path d="M0 0 C1.32 0.33 2.64 0.66 4 1 C3.01 1.495 3.01 1.495 2 2 C1.34 1.34 0.68 0.68 0 0 Z " fill="#647F70" transform="translate(79,37)"/>
<path d="M0 0 C0 0.99 0 1.98 0 3 C-0.66 2.67 -1.32 2.34 -2 2 C-1.34 1.34 -0.68 0.68 0 0 Z " fill="#2A6550" transform="translate(94,35)"/>
<path d="M0 0 C0.66 0.66 1.32 1.32 2 2 C1.01 2.33 0.02 2.66 -1 3 C-0.67 2.01 -0.34 1.02 0 0 Z " fill="#287156" transform="translate(105,31)"/>
<path d="M0 0 C0.33 0 0.66 0 1 0 C1 1.65 1 3.3 1 5 C0.67 5 0.34 5 0 5 C0 3.35 0 1.7 0 0 Z " fill="#011409" transform="translate(68,2)"/>
<path d="M0 0 C0.99 0.495 0.99 0.495 2 1 C1.67 1.66 1.34 2.32 1 3 C0.67 2.01 0.34 1.02 0 0 Z " fill="#0C1B0C" transform="translate(94,77)"/>
<path d="M0 0 C0.33 0.99 0.66 1.98 1 3 C0.34 2.67 -0.32 2.34 -1 2 C-0.67 1.34 -0.34 0.68 0 0 Z " fill="#3E876B" transform="translate(69,76)"/>
<path d="M0 0 C0.99 0.33 1.98 0.66 3 1 C2.01 1 1.02 1 0 1 C0 0.67 0 0.34 0 0 Z " fill="#265644" transform="translate(55,75)"/>
<path d="M0 0 C0.99 0.33 1.98 0.66 3 1 C2.01 1 1.02 1 0 1 C0 0.67 0 0.34 0 0 Z " fill="#1A472F" transform="translate(48,67)"/>
<path d="M0 0 C4 1 4 1 4 1 Z " fill="#38A77A" transform="translate(75,63)"/>
<path d="M0 0 C0.99 0.33 1.98 0.66 3 1 C2.01 1 1.02 1 0 1 C0 0.67 0 0.34 0 0 Z " fill="#78AC9B" transform="translate(63,61)"/>
<path d="M0 0 C4 1 4 1 4 1 Z " fill="#BDBDBC" transform="translate(3,61)"/>
<path d="M0 0 C0.99 0.495 0.99 0.495 2 1 C1.67 1.66 1.34 2.32 1 3 C0.67 2.01 0.34 1.02 0 0 Z " fill="#B9B9B8" transform="translate(18,52)"/>
<path d="M0 0 C0.66 0 1.32 0 2 0 C2 0.66 2 1.32 2 2 C1.34 2 0.68 2 0 2 C0 1.34 0 0.68 0 0 Z " fill="#92D6BF" transform="translate(60,52)"/>
<path d="M0 0 C1 4 1 4 1 4 Z " fill="#B3ABAA" transform="translate(150,48)"/>
<path d="M0 0 C4 1 4 1 4 1 Z " fill="#C0D6D2" transform="translate(87,46)"/>
<path d="M0 0 C0.66 0 1.32 0 2 0 C2 0.66 2 1.32 2 2 C1.34 2 0.68 2 0 2 C0 1.34 0 0.68 0 0 Z " fill="#59977D" transform="translate(60,42)"/>
<path d="M0 0 C0.99 0.33 1.98 0.66 3 1 C2.01 1 1.02 1 0 1 C0 0.67 0 0.34 0 0 Z " fill="#146444" transform="translate(106,30)"/>
<path d="M0 0 C0.66 0.66 1.32 1.32 2 2 C1.01 2.495 1.01 2.495 0 3 C0 2.01 0 1.02 0 0 Z " fill="#2F6653" transform="translate(98,23)"/>
<path d="M0 0 C0.99 0.33 1.98 0.66 3 1 C2.01 1 1.02 1 0 1 C0 0.67 0 0.34 0 0 Z " fill="#031C06" transform="translate(45,21)"/>
<path d="" fill="#0C3023" transform="translate(0,0)"/>
<path d="M0 0 C3 1 3 1 3 1 Z " fill="#063B22" transform="translate(54,94)"/>
<path d="" fill="#177259" transform="translate(0,0)"/>
<path d="" fill="#0B613A" transform="translate(0,0)"/>
<path d="" fill="#228C71" transform="translate(0,0)"/>
<path d="M0 0 C3 1 3 1 3 1 Z " fill="#1A6C47" transform="translate(74,83)"/>
<path d="" fill="#4F9C89" transform="translate(0,0)"/>
<path d="M0 0 C3 1 3 1 3 1 Z " fill="#0C5435" transform="translate(79,78)"/>
<path d="" fill="#215737" transform="translate(0,0)"/>
<path d="" fill="#398562" transform="translate(0,0)"/>
<path d="" fill="#36976C" transform="translate(0,0)"/>
<path d="M0 0 C3 1 3 1 3 1 Z " fill="#107153" transform="translate(113,64)"/>
<path d="M0 0 C3 1 3 1 3 1 Z " fill="#117B5F" transform="translate(110,63)"/>
<path d="M0 0 C0.99 0.495 0.99 0.495 2 1 C1.01 1.495 1.01 1.495 0 2 C0 1.34 0 0.68 0 0 Z " fill="#266953" transform="translate(107,62)"/>
<path d="M0 0 C3 1 3 1 3 1 Z " fill="#2FA277" transform="translate(56,42)"/>
<path d="M0 0 C0.33 0.66 0.66 1.32 1 2 C0.34 1.67 -0.32 1.34 -1 1 C-0.67 0.67 -0.34 0.34 0 0 Z " fill="#708876" transform="translate(28,37)"/>
<path d="M0 0 C3 1 3 1 3 1 Z " fill="#0F723C" transform="translate(43,37)"/>
<path d="M0 0 C3 1 3 1 3 1 Z " fill="#10662E" transform="translate(40,36)"/>
<path d="M0 0 C3 1 3 1 3 1 Z " fill="#115D33" transform="translate(37,35)"/>
<path d="" fill="#095B34" transform="translate(0,0)"/>
<path d="M0 0 C3 1 3 1 3 1 Z " fill="#0B502B" transform="translate(34,34)"/>
<path d="" fill="#026438" transform="translate(0,0)"/>
<path d="M0 0 C3 1 3 1 3 1 Z " fill="#3A7159" transform="translate(117,26)"/>
<path d="" fill="#173D2A" transform="translate(0,0)"/>
<path d="" fill="#062C1B" transform="translate(0,0)"/>
<path d="" fill="#15301F" transform="translate(0,0)"/>
<path d="" fill="#0C2E1E" transform="translate(0,0)"/>
<path d="M0 0 C3 1 3 1 3 1 Z " fill="#102D1C" transform="translate(87,1)"/>
<path d="M0 0 C2 1 2 1 2 1 Z " fill="#0A422E" transform="translate(92,96)"/>
<path d="M0 0 C2 1 2 1 2 1 Z " fill="#074434" transform="translate(95,95)"/>
<path d="" fill="#07492F" transform="translate(0,0)"/>
<path d="" fill="#194235" transform="translate(0,0)"/>
<path d="" fill="#056147" transform="translate(0,0)"/>
<path d="" fill="#0C3C24" transform="translate(0,0)"/>
<path d="" fill="#15614B" transform="translate(0,0)"/>
<path d="" fill="#0B6B4E" transform="translate(0,0)"/>
<path d="" fill="#0C432C" transform="translate(0,0)"/>
<path d="" fill="#0C4C34" transform="translate(0,0)"/>
<path d="" fill="#599781" transform="translate(0,0)"/>
<path d="" fill="#0F1C18" transform="translate(0,0)"/>
<path d="" fill="#114930" transform="translate(0,0)"/>
<path d="" fill="#5F8777" transform="translate(0,0)"/>
<path d="" fill="#18A283" transform="translate(0,0)"/>
<path d="" fill="#106140" transform="translate(0,0)"/>
<path d="" fill="#2DB293" transform="translate(0,0)"/>
<path d="M0 0 C2 1 2 1 2 1 Z " fill="#13533A" transform="translate(114,79)"/>
<path d="M0 0 C2 1 2 1 2 1 Z " fill="#19473C" transform="translate(109,76)"/>
<path d="" fill="#0B9C7C" transform="translate(0,0)"/>
<path d="" fill="#10956C" transform="translate(0,0)"/>
<path d="" fill="#77948D" transform="translate(0,0)"/>
<path d="M0 0 C2 1 2 1 2 1 Z " fill="#0E5D36" transform="translate(36,73)"/>
<path d="" fill="#15825C" transform="translate(0,0)"/>
<path d="" fill="#0A2F1D" transform="translate(0,0)"/>
<path d="" fill="#18472C" transform="translate(0,0)"/>
<path d="M0 0 C2 1 2 1 2 1 Z " fill="#0D5831" transform="translate(38,72)"/>
<path d="M0 0 C2 1 2 1 2 1 Z " fill="#286A4B" transform="translate(44,71)"/>
<path d="M0 0 C2 1 2 1 2 1 Z " fill="#126239" transform="translate(40,71)"/>
<path d="" fill="#094530" transform="translate(0,0)"/>
<path d="M0 0 C2 1 2 1 2 1 Z " fill="#0F5E38" transform="translate(42,70)"/>
<path d="M0 0 C2 1 2 1 2 1 Z " fill="#12613D" transform="translate(44,69)"/>
<path d="" fill="#0C663B" transform="translate(0,0)"/>
<path d="" fill="#428A71" transform="translate(0,0)"/>
<path d="M0 0 C2 1 2 1 2 1 Z " fill="#135A3C" transform="translate(46,68)"/>
<path d="" fill="#094C27" transform="translate(0,0)"/>
<path d="M0 0 C2 1 2 1 2 1 Z " fill="#16593D" transform="translate(120,66)"/>
<path d="M0 0 C2 1 2 1 2 1 Z " fill="#469B80" transform="translate(54,66)"/>
<path d="M0 0 C2 1 2 1 2 1 Z " fill="#067C52" transform="translate(117,65)"/>
<path d="M0 0 C2 1 2 1 2 1 Z " fill="#1E614D" transform="translate(61,64)"/>
<path d="M0 0 C2 1 2 1 2 1 Z " fill="#112E23" transform="translate(72,63)"/>
<path d="M0 0 C2 1 2 1 2 1 Z " fill="#14A097" transform="translate(59,63)"/>
<path d="M0 0 C2 1 2 1 2 1 Z " fill="#234633" transform="translate(102,59)"/>
<path d="" fill="#CDD8D4" transform="translate(0,0)"/>
<path d="M0 0 C2 1 2 1 2 1 Z " fill="#366B52" transform="translate(93,57)"/>
<path d="M0 0 C2 1 2 1 2 1 Z " fill="#163425" transform="translate(91,56)"/>
<path d="" fill="#E6F0ED" transform="translate(0,0)"/>
<path d="" fill="#DAEAE4" transform="translate(0,0)"/>
<path d="" fill="#BFC2C2" transform="translate(0,0)"/>
<path d="" fill="#B3C4C4" transform="translate(0,0)"/>
<path d="" fill="#B7B2B1" transform="translate(0,0)"/>
<path d="" fill="#BAB6B5" transform="translate(0,0)"/>
<path d="" fill="#B6B3B3" transform="translate(0,0)"/>
<path d="" fill="#B8B8B5" transform="translate(0,0)"/>
<path d="" fill="#F5FBF9" transform="translate(0,0)"/>
<path d="" fill="#B7BBBC" transform="translate(0,0)"/>
<path d="" fill="#ADB5B4" transform="translate(0,0)"/>
<path d="" fill="#F4FAF6" transform="translate(0,0)"/>
<path d="M0 0 C2 1 2 1 2 1 Z " fill="#14492D" transform="translate(116,39)"/>
<path d="M0 0 C2 1 2 1 2 1 Z " fill="#082110" transform="translate(55,39)"/>
<path d="M0 0 C2 1 2 1 2 1 Z " fill="#0E3F24" transform="translate(119,38)"/>
<path d="M0 0 C2 1 2 1 2 1 Z " fill="#0C3E23" transform="translate(50,36)"/>
<path d="M0 0 C2 1 2 1 2 1 Z " fill="#66B5A1" transform="translate(97,34)"/>
<path d="M0 0 C2 1 2 1 2 1 Z " fill="#066D3B" transform="translate(41,33)"/>
<path d="M0 0 C2 1 2 1 2 1 Z " fill="#1C4D31" transform="translate(31,33)"/>
<path d="" fill="#0E5D37" transform="translate(0,0)"/>
<path d="M0 0 C2 1 2 1 2 1 Z " fill="#204239" transform="translate(98,31)"/>
<path d="M0 0 C2 1 2 1 2 1 Z " fill="#106640" transform="translate(109,30)"/>
<path d="" fill="#357A5F" transform="translate(0,0)"/>
<path d="M0 0 C2 1 2 1 2 1 Z " fill="#0C603C" transform="translate(111,29)"/>
<path d="" fill="#42765C" transform="translate(0,0)"/>
<path d="" fill="#01180A" transform="translate(0,0)"/>
<path d="M0 0 C2 1 2 1 2 1 Z " fill="#09653A" transform="translate(113,28)"/>
<path d="M0 0 C2 1 2 1 2 1 Z " fill="#2A6643" transform="translate(50,28)"/>
<path d="" fill="#446559" transform="translate(0,0)"/>
<path d="M0 0 C2 1 2 1 2 1 Z " fill="#08763D" transform="translate(115,27)"/>
<path d="M0 0 C2 1 2 1 2 1 Z " fill="#105A34" transform="translate(110,27)"/>
<path d="" fill="#42725D" transform="translate(0,0)"/>
<path d="M0 0 C2 1 2 1 2 1 Z " fill="#21382A" transform="translate(43,23)"/>
<path d="" fill="#145431" transform="translate(0,0)"/>
<path d="" fill="#245E46" transform="translate(0,0)"/>
<path d="M0 0 C2 1 2 1 2 1 Z " fill="#1D3F25" transform="translate(39,20)"/>
<path d="" fill="#0D341D" transform="translate(0,0)"/>
<path d="" fill="#133725" transform="translate(0,0)"/>
<path d="" fill="#133622" transform="translate(0,0)"/>
<path d="" fill="#1E3227" transform="translate(0,0)"/>
<path d="M0 0 C2 1 2 1 2 1 Z " fill="#274336" transform="translate(109,14)"/>
<path d="" fill="#183D29" transform="translate(0,0)"/>
<path d="" fill="#224533" transform="translate(0,0)"/>
<path d="" fill="#223D2F" transform="translate(0,0)"/>
<path d="" fill="#194934" transform="translate(0,0)"/>
<path d="M0 0 C2 1 2 1 2 1 Z " fill="#122A1E" transform="translate(48,9)"/>
<path d="M0 0 C2 1 2 1 2 1 Z " fill="#2B362F" transform="translate(103,8)"/>
<path d="" fill="#254236" transform="translate(0,0)"/>
<path d="M0 0 C2 1 2 1 2 1 Z " fill="#2A4539" transform="translate(100,6)"/>
<path d="M0 0 C2 1 2 1 2 1 Z " fill="#2E3E38" transform="translate(98,5)"/>
<path d="" fill="#212B25" transform="translate(0,0)"/>
<path d="M0 0 C2 1 2 1 2 1 Z " fill="#0A2114" transform="translate(56,4)"/>
<path d="M0 0 C2 1 2 1 2 1 Z " fill="#011A0D" transform="translate(58,3)"/>
<path d="M0 0 C2 1 2 1 2 1 Z " fill="#041A10" transform="translate(61,2)"/>
<path d="M0 0 C2 1 2 1 2 1 Z " fill="#031D12" transform="translate(70,0)"/>
<path d="" fill="#01170E" transform="translate(0,0)"/>
<path d="" fill="#051B0E" transform="translate(0,0)"/>
<path d="" fill="#004C39" transform="translate(0,0)"/>
<path d="" fill="#14221A" transform="translate(0,0)"/>
<path d="" fill="#074532" transform="translate(0,0)"/>
<path d="" fill="#065130" transform="translate(0,0)"/>
<path d="" fill="#012D18" transform="translate(0,0)"/>
<path d="" fill="#0D4A2D" transform="translate(0,0)"/>
<path d="" fill="#0E452F" transform="translate(0,0)"/>
<path d="" fill="#193527" transform="translate(0,0)"/>
<path d="" fill="#014530" transform="translate(0,0)"/>
<path d="" fill="#0B130F" transform="translate(0,0)"/>
<path d="" fill="#00703B" transform="translate(0,0)"/>
<path d="" fill="#0B0E0A" transform="translate(0,0)"/>
<path d="" fill="#1D7B60" transform="translate(0,0)"/>
<path d="" fill="#233931" transform="translate(0,0)"/>
<path d="" fill="#161615" transform="translate(0,0)"/>
<path d="" fill="#1E342A" transform="translate(0,0)"/>
<path d="" fill="#151D19" transform="translate(0,0)"/>
<path d="" fill="#478E7A" transform="translate(0,0)"/>
<path d="" fill="#0C4229" transform="translate(0,0)"/>
<path d="" fill="#19342A" transform="translate(0,0)"/>
<path d="" fill="#11432A" transform="translate(0,0)"/>
<path d="" fill="#0C4B2F" transform="translate(0,0)"/>
<path d="" fill="#569784" transform="translate(0,0)"/>
<path d="" fill="#0B6C4E" transform="translate(0,0)"/>
<path d="" fill="#0C4B2C" transform="translate(0,0)"/>
<path d="" fill="#0F492C" transform="translate(0,0)"/>
<path d="" fill="#0E1A15" transform="translate(0,0)"/>
<path d="" fill="#12472D" transform="translate(0,0)"/>
<path d="" fill="#0B472A" transform="translate(0,0)"/>
<path d="" fill="#0E4428" transform="translate(0,0)"/>
<path d="" fill="#13604A" transform="translate(0,0)"/>
<path d="" fill="#0D1711" transform="translate(0,0)"/>
<path d="" fill="#6AA290" transform="translate(0,0)"/>
<path d="" fill="#0A4E30" transform="translate(0,0)"/>
<path d="" fill="#0B4B2E" transform="translate(0,0)"/>
<path d="" fill="#136E58" transform="translate(0,0)"/>
<path d="" fill="#135337" transform="translate(0,0)"/>
<path d="" fill="#176D42" transform="translate(0,0)"/>
<path d="" fill="#157E64" transform="translate(0,0)"/>
<path d="" fill="#04130C" transform="translate(0,0)"/>
<path d="" fill="#7BA59C" transform="translate(0,0)"/>
<path d="" fill="#13563B" transform="translate(0,0)"/>
<path d="" fill="#128264" transform="translate(0,0)"/>
<path d="" fill="#164D39" transform="translate(0,0)"/>
<path d="" fill="#125C3D" transform="translate(0,0)"/>
<path d="" fill="#0D5B3E" transform="translate(0,0)"/>
<path d="" fill="#2F4F43" transform="translate(0,0)"/>
<path d="" fill="#208A6E" transform="translate(0,0)"/>
<path d="" fill="#0D6646" transform="translate(0,0)"/>
<path d="" fill="#166445" transform="translate(0,0)"/>
<path d="" fill="#213D2F" transform="translate(0,0)"/>
<path d="" fill="#1E4F3B" transform="translate(0,0)"/>
<path d="" fill="#1D4839" transform="translate(0,0)"/>
<path d="" fill="#2B9379" transform="translate(0,0)"/>
<path d="" fill="#186649" transform="translate(0,0)"/>
<path d="" fill="#3B967D" transform="translate(0,0)"/>
<path d="" fill="#0F9F7B" transform="translate(0,0)"/>
<path d="" fill="#1B6147" transform="translate(0,0)"/>
<path d="" fill="#16916A" transform="translate(0,0)"/>
<path d="" fill="#214037" transform="translate(0,0)"/>
<path d="" fill="#499C85" transform="translate(0,0)"/>
<path d="" fill="#0F4137" transform="translate(0,0)"/>
<path d="" fill="#73C5AC" transform="translate(0,0)"/>
<path d="" fill="#15402B" transform="translate(0,0)"/>
<path d="" fill="#20362B" transform="translate(0,0)"/>
<path d="" fill="#103724" transform="translate(0,0)"/>
<path d="" fill="#118869" transform="translate(0,0)"/>
<path d="" fill="#223B2D" transform="translate(0,0)"/>
<path d="" fill="#005028" transform="translate(0,0)"/>
<path d="" fill="#163A2E" transform="translate(0,0)"/>
<path d="" fill="#194C36" transform="translate(0,0)"/>
<path d="" fill="#0A4830" transform="translate(0,0)"/>
<path d="" fill="#0B2F20" transform="translate(0,0)"/>
<path d="" fill="#128966" transform="translate(0,0)"/>
<path d="" fill="#0C542E" transform="translate(0,0)"/>
<path d="" fill="#207B5B" transform="translate(0,0)"/>
<path d="" fill="#042D17" transform="translate(0,0)"/>
<path d="" fill="#258A61" transform="translate(0,0)"/>
<path d="" fill="#275945" transform="translate(0,0)"/>
<path d="" fill="#1B553F" transform="translate(0,0)"/>
<path d="" fill="#367D63" transform="translate(0,0)"/>
<path d="" fill="#36725A" transform="translate(0,0)"/>
<path d="" fill="#268265" transform="translate(0,0)"/>
<path d="" fill="#1F5744" transform="translate(0,0)"/>
<path d="" fill="#2A8366" transform="translate(0,0)"/>
<path d="" fill="#225945" transform="translate(0,0)"/>
<path d="" fill="#29886D" transform="translate(0,0)"/>
<path d="" fill="#255A49" transform="translate(0,0)"/>
<path d="" fill="#0D573B" transform="translate(0,0)"/>
<path d="" fill="#268E72" transform="translate(0,0)"/>
<path d="" fill="#034125" transform="translate(0,0)"/>
<path d="" fill="#2F5D52" transform="translate(0,0)"/>
<path d="" fill="#33947B" transform="translate(0,0)"/>
<path d="" fill="#497962" transform="translate(0,0)"/>
<path d="" fill="#094C33" transform="translate(0,0)"/>
<path d="" fill="#308C6F" transform="translate(0,0)"/>
<path d="" fill="#0D604D" transform="translate(0,0)"/>
<path d="" fill="#01543B" transform="translate(0,0)"/>
<path d="" fill="#3C9278" transform="translate(0,0)"/>
<path d="" fill="#3D755C" transform="translate(0,0)"/>
<path d="" fill="#248560" transform="translate(0,0)"/>
<path d="" fill="#186E53" transform="translate(0,0)"/>
<path d="" fill="#245F46" transform="translate(0,0)"/>
<path d="" fill="#457B63" transform="translate(0,0)"/>
<path d="" fill="#175C40" transform="translate(0,0)"/>
<path d="" fill="#B9B6B5" transform="translate(0,0)"/>
<path d="" fill="#1A2C21" transform="translate(0,0)"/>
<path d="" fill="#133420" transform="translate(0,0)"/>
<path d="" fill="#D5EBE3" transform="translate(0,0)"/>
<path d="" fill="#BBBCB3" transform="translate(0,0)"/>
<path d="" fill="#CBD3D1" transform="translate(0,0)"/>
<path d="" fill="#3FB29C" transform="translate(0,0)"/>
<path d="" fill="#325543" transform="translate(0,0)"/>
<path d="" fill="#469C88" transform="translate(0,0)"/>
<path d="" fill="#C0BEBD" transform="translate(0,0)"/>
<path d="" fill="#093D32" transform="translate(0,0)"/>
<path d="" fill="#538675" transform="translate(0,0)"/>
<path d="" fill="#4D7C69" transform="translate(0,0)"/>
<path d="" fill="#B2BBBE" transform="translate(0,0)"/>
<path d="" fill="#B9BAB9" transform="translate(0,0)"/>
<path d="" fill="#032C13" transform="translate(0,0)"/>
<path d="" fill="#B6D1C3" transform="translate(0,0)"/>
<path d="" fill="#B7B6B6" transform="translate(0,0)"/>
<path d="" fill="#021704" transform="translate(0,0)"/>
<path d="" fill="#B5AFAC" transform="translate(0,0)"/>
<path d="" fill="#AEB3B1" transform="translate(0,0)"/>
<path d="" fill="#709E8E" transform="translate(0,0)"/>
<path d="" fill="#001303" transform="translate(0,0)"/>
<path d="" fill="#0A512E" transform="translate(0,0)"/>
<path d="" fill="#166841" transform="translate(0,0)"/>
<path d="" fill="#66A894" transform="translate(0,0)"/>
<path d="" fill="#489469" transform="translate(0,0)"/>
<path d="" fill="#125932" transform="translate(0,0)"/>
<path d="" fill="#112C1E" transform="translate(0,0)"/>
<path d="" fill="#235138" transform="translate(0,0)"/>
<path d="" fill="#124C2D" transform="translate(0,0)"/>
<path d="" fill="#5DA28F" transform="translate(0,0)"/>
<path d="" fill="#0E2C21" transform="translate(0,0)"/>
<path d="" fill="#2F5F50" transform="translate(0,0)"/>
<path d="" fill="#132F27" transform="translate(0,0)"/>
<path d="" fill="#0A3C1B" transform="translate(0,0)"/>
<path d="" fill="#083216" transform="translate(0,0)"/>
<path d="" fill="#297350" transform="translate(0,0)"/>
<path d="" fill="#16482D" transform="translate(0,0)"/>
<path d="" fill="#225739" transform="translate(0,0)"/>
<path d="" fill="#276B4A" transform="translate(0,0)"/>
<path d="" fill="#195A39" transform="translate(0,0)"/>
<path d="" fill="#135333" transform="translate(0,0)"/>
<path d="" fill="#011007" transform="translate(0,0)"/>
<path d="" fill="#005B36" transform="translate(0,0)"/>
<path d="" fill="#183221" transform="translate(0,0)"/>
<path d="" fill="#256A44" transform="translate(0,0)"/>
<path d="" fill="#194F31" transform="translate(0,0)"/>
<path d="" fill="#1F593F" transform="translate(0,0)"/>
<path d="" fill="#011706" transform="translate(0,0)"/>
<path d="" fill="#3D7556" transform="translate(0,0)"/>
<path d="" fill="#145531" transform="translate(0,0)"/>
<path d="" fill="#112A1C" transform="translate(0,0)"/>
<path d="" fill="#001604" transform="translate(0,0)"/>
<path d="" fill="#08532E" transform="translate(0,0)"/>
<path d="" fill="#135D3A" transform="translate(0,0)"/>
<path d="" fill="#001400" transform="translate(0,0)"/>
<path d="" fill="#2C6545" transform="translate(0,0)"/>
<path d="" fill="#447560" transform="translate(0,0)"/>
<path d="" fill="#437D70" transform="translate(0,0)"/>
<path d="" fill="#001505" transform="translate(0,0)"/>
<path d="" fill="#44786B" transform="translate(0,0)"/>
<path d="" fill="#1C4D36" transform="translate(0,0)"/>
<path d="" fill="#134A2E" transform="translate(0,0)"/>
<path d="" fill="#618471" transform="translate(0,0)"/>
<path d="" fill="#4D6354" transform="translate(0,0)"/>
<path d="" fill="#427D6C" transform="translate(0,0)"/>
<path d="" fill="#2F5544" transform="translate(0,0)"/>
<path d="" fill="#315F44" transform="translate(0,0)"/>
<path d="" fill="#58826B" transform="translate(0,0)"/>
<path d="" fill="#36654C" transform="translate(0,0)"/>
<path d="" fill="#437E6E" transform="translate(0,0)"/>
<path d="" fill="#06140A" transform="translate(0,0)"/>
<path d="" fill="#4C735C" transform="translate(0,0)"/>
<path d="" fill="#0C4B31" transform="translate(0,0)"/>
<path d="" fill="#417566" transform="translate(0,0)"/>
<path d="" fill="#1C492D" transform="translate(0,0)"/>
<path d="" fill="#003414" transform="translate(0,0)"/>
<path d="" fill="#09150C" transform="translate(0,0)"/>
<path d="" fill="#366A5B" transform="translate(0,0)"/>
<path d="" fill="#1A3729" transform="translate(0,0)"/>
<path d="" fill="#09130B" transform="translate(0,0)"/>
<path d="" fill="#5B7B66" transform="translate(0,0)"/>
<path d="" fill="#316453" transform="translate(0,0)"/>
<path d="" fill="#3B604A" transform="translate(0,0)"/>
<path d="" fill="#4C6B58" transform="translate(0,0)"/>
<path d="" fill="#345E4E" transform="translate(0,0)"/>
<path d="" fill="#18432D" transform="translate(0,0)"/>
<path d="" fill="#426351" transform="translate(0,0)"/>
<path d="" fill="#2D4E41" transform="translate(0,0)"/>
<path d="" fill="#163321" transform="translate(0,0)"/>
<path d="" fill="#142318" transform="translate(0,0)"/>
<path d="" fill="#3F5B4B" transform="translate(0,0)"/>
<path d="" fill="#2B4635" transform="translate(0,0)"/>
<path d="" fill="#101712" transform="translate(0,0)"/>
<path d="" fill="#2C4D3B" transform="translate(0,0)"/>
<path d="" fill="#2F4638" transform="translate(0,0)"/>
<path d="" fill="#225649" transform="translate(0,0)"/>
<path d="" fill="#395241" transform="translate(0,0)"/>
<path d="" fill="#2C2B2D" transform="translate(0,0)"/>
<path d="" fill="#3D5241" transform="translate(0,0)"/>
<path d="" fill="#2B322C" transform="translate(0,0)"/>
<path d="" fill="#284E44" transform="translate(0,0)"/>
<path d="" fill="#000A00" transform="translate(0,0)"/>
<path d="" fill="#303930" transform="translate(0,0)"/>
<path d="" fill="#2C4B44" transform="translate(0,0)"/>
<path d="" fill="#2D443A" transform="translate(0,0)"/>
<path d="" fill="#385951" transform="translate(0,0)"/>
<path d="" fill="#314D44" transform="translate(0,0)"/>
<path d="" fill="#0B2D1A" transform="translate(0,0)"/>
<path d="" fill="#192F22" transform="translate(0,0)"/>
<path d="" fill="#0F2C21" transform="translate(0,0)"/>
<path d="" fill="#0F2D1F" transform="translate(0,0)"/>
<path d="" fill="#1A2D22" transform="translate(0,0)"/>
</svg>
