<?xml version="1.0" encoding="utf-8"?>
<!-- Generator: Adobe Illustrator 27.9.0, SVG Export Plug-In . SVG Version: 6.00 Build 0)  -->
<svg version="1.1" id="Layer_1" xmlns="http://www.w3.org/2000/svg" xmlns:xlink="http://www.w3.org/1999/xlink" x="0px" y="0px"
	 viewBox="0 0 1920 1080" style="enable-background:new 0 0 1920 1080;" xml:space="preserve">
<style type="text/css">
	.st0{fill:#FF596E;}
	.st1{fill:#800010;}
	.st2{fill:#FFFFFF;}
</style>
<g>
	<g>
		<polygon class="st0" points="578.6,513.1 641,484.1 641,405 		"/>
		<polygon class="st0" points="641,484.1 641,547.2 703.4,513.1 		"/>
		<polygon class="st1" points="641,484.1 641,547.2 578.6,513.1 		"/>
		<polygon class="st1" points="703.4,513.1 641,484.1 641,405 		"/>
		<polygon class="st0" points="641,571.5 641,638.7 577.4,536.8 		"/>
		<polygon class="st1" points="641,571.5 641,638.7 704.6,536.8 		"/>
		<polygon class="st1" points="715.1,552.1 729.6,592.6 761.1,539.9 		"/>
		<polygon class="st0" points="729.6,592.6 761.1,583.2 761.1,539.9 		"/>
		<polygon class="st1" points="761.1,583.2 715.1,660 680.2,675 729.6,592.6 		"/>
		<polygon class="st0" points="520.9,583.2 566.9,660 601.8,675 552.5,592.6 		"/>
		<polygon class="st1" points="641,675 566.9,552.1 552.5,592.6 601.8,675 		"/>
		<polygon class="st0" points="566.9,552.1 552.5,592.6 520.9,539.9 		"/>
		<polygon class="st1" points="552.5,592.6 520.9,583.2 520.9,539.9 		"/>
		<polygon class="st0" points="641,675 715.1,552.1 729.6,592.6 680.2,675 		"/>
	</g>
	<g>
		<g>
			<polygon class="st2" points="831.1,539.9 831.1,610.8 852.5,610.8 852.5,566.5 872,610.8 895.4,610.8 864,539.9 			"/>
			<polygon class="st2" points="934.2,539.9 902.9,610.8 926.2,610.8 945.8,566.5 945.8,610.8 967.1,610.8 967.1,539.9 			"/>
		</g>
		<polygon class="st2" points="1117.3,517.8 1177.4,517.8 1177.4,610.8 1203.1,610.8 1203.1,517.8 1263.2,517.8 1263.2,492 
			1117.3,492 		"/>
		<polygon class="st2" points="1103,517.8 1103,492 981.4,492 981.4,610.8 1103,610.8 1103,585.1 1007.2,585.1 1007.2,562.6 
			1090.3,562.6 1090.3,536.8 1007.2,536.8 1007.2,517.8 		"/>
		<polygon class="st2" points="1373.3,492 1373.3,538.6 1303.2,538.6 1303.2,492 1277.5,492 1277.5,610.8 1303.2,610.8 
			1303.2,564.3 1373.3,564.3 1373.3,610.8 1399.1,610.8 1399.1,492 		"/>
	</g>
</g>
</svg>
