<?xml version="1.0" encoding="utf-8"?>
<!-- Generator: Adobe Illustrator 27.9.0, SVG Export Plug-In . SVG Version: 6.00 Build 0)  -->
<svg version="1.1" id="Layer_1" xmlns="http://www.w3.org/2000/svg" xmlns:xlink="http://www.w3.org/1999/xlink" x="0px" y="0px"
	 viewBox="0 0 1920 1080" style="enable-background:new 0 0 1920 1080;" xml:space="preserve">
<style type="text/css">
	.st0{fill:#FF596E;}
	.st1{fill:#800010;}
</style>
<g>
	<polygon class="st0" points="578.6,506.7 641,477.8 641,398.6 	"/>
	<polygon class="st0" points="641,477.8 641,540.8 703.4,506.7 	"/>
	<polygon class="st1" points="641,477.8 641,540.8 578.6,506.7 	"/>
	<polygon class="st1" points="703.4,506.7 641,477.8 641,398.6 	"/>
	<polygon class="st0" points="641,565.2 641,632.4 577.4,530.4 	"/>
	<polygon class="st1" points="641,565.2 641,632.4 704.6,530.4 	"/>
	<polygon class="st1" points="715.1,545.8 729.6,586.2 761.1,533.5 	"/>
	<polygon class="st0" points="729.6,586.2 761.1,576.9 761.1,533.5 	"/>
	<polygon class="st1" points="761.1,576.9 715.1,653.7 680.2,668.7 729.6,586.2 	"/>
	<polygon class="st0" points="520.9,576.9 566.9,653.7 601.8,668.7 552.5,586.2 	"/>
	<polygon class="st1" points="641,668.7 566.9,545.8 552.5,586.2 601.8,668.7 	"/>
	<polygon class="st0" points="566.9,545.8 552.5,586.2 520.9,533.5 	"/>
	<polygon class="st1" points="552.5,586.2 520.9,576.9 520.9,533.5 	"/>
	<polygon class="st0" points="641,668.7 715.1,545.8 729.6,586.2 680.2,668.7 	"/>
</g>
<g>
	<g>
		<polygon points="831.1,533.5 831.1,604.5 852.5,604.5 852.5,560.2 872,604.5 895.4,604.5 864,533.5 		"/>
		<polygon points="934.2,533.5 902.9,604.5 926.2,604.5 945.8,560.2 945.8,604.5 967.1,604.5 967.1,533.5 		"/>
	</g>
	<polygon points="1117.3,511.4 1177.4,511.4 1177.4,604.5 1203.1,604.5 1203.1,511.4 1263.2,511.4 1263.2,485.7 1117.3,485.7 	"/>
	<polygon points="1103,511.4 1103,485.7 981.4,485.7 981.4,604.5 1103,604.5 1103,578.7 1007.2,578.7 1007.2,556.2 1090.3,556.2 
		1090.3,530.5 1007.2,530.5 1007.2,511.4 	"/>
	<polygon points="1373.3,485.7 1373.3,532.2 1303.2,532.2 1303.2,485.7 1277.5,485.7 1277.5,604.5 1303.2,604.5 1303.2,558 
		1373.3,558 1373.3,604.5 1399.1,604.5 1399.1,485.7 	"/>
</g>
</svg>
