<?xml version="1.0" encoding="UTF-8"?>
<svg version="1.1" xmlns="http://www.w3.org/2000/svg" width="200" height="200">
<path d="M0 0 C4.20210061 0.72401819 8.38097133 1.54092441 12.5625 2.375 C14.33463867 2.67857422 14.33463867 2.67857422 16.14257812 2.98828125 C22.17097032 4.23786395 26.20916595 5.31693337 29.87890625 10.453125 C30.95486206 12.281601 31.9940656 14.13208636 33 16 C34.19211848 17.96808408 35.3875633 19.93415628 36.5859375 21.8984375 C37.85246692 24.05523517 39.11533432 26.21418642 40.375 28.375 C41.7708109 30.75285099 43.1703294 33.1285098 44.5703125 35.50390625 C44.92855103 36.11233871 45.28678955 36.72077118 45.65588379 37.34764099 C49.796932 44.37041582 54.01853019 51.34395764 58.25 58.3125 C58.61180359 58.90963806 58.97360718 59.50677612 59.34637451 60.12200928 C60.38044961 61.8283483 61.41674859 63.53333899 62.453125 65.23828125 C63.04254883 66.20805908 63.63197266 67.17783691 64.23925781 68.17700195 C66.10097153 71.16188766 68.03471157 74.08255577 70 77 C70.4626123 76.20529297 70.92522461 75.41058594 71.40185547 74.59179688 C87.23789673 47.4128222 87.23789673 47.4128222 93.30639648 37.86450195 C95.7914764 33.95091113 98.21528863 30.00524611 100.609375 26.03515625 C101.24206299 24.9869873 101.87475098 23.93881836 102.52661133 22.85888672 C103.77731269 20.78317308 105.02468067 18.70544639 106.26831055 16.62548828 C106.838479 15.68044434 107.40864746 14.73540039 107.99609375 13.76171875 C108.50325928 12.91569092 109.0104248 12.06966309 109.53295898 11.19799805 C112.31813258 7.02510441 114.32026211 5.63742482 119.21875 4.39453125 C120.23324219 4.13349609 121.24773437 3.87246094 122.29296875 3.60351562 C123.35128906 3.34248047 124.40960938 3.08144531 125.5 2.8125 C126.55832031 2.53986328 127.61664063 2.26722656 128.70703125 1.98632812 C136.5428219 0 136.5428219 0 140 0 C142.760872 21.75717051 138.54512036 34.00998583 126.19728088 51.375 C123.5445076 55.1152237 121.32081175 58.88701857 119.37109375 63.03320312 C114.02148628 72.55013805 107.02548694 75.95551262 96.81018066 79.26861572 C89.0696568 81.2831828 81.10581657 81.21294803 73.1574707 81.09790039 C70.06541265 81.06253332 66.98400945 81.11818016 63.89257812 81.18164062 C50.26629605 81.26125352 34.79896963 79.61550684 24.51733398 69.54824829 C21.67029478 66.04314145 19.88734316 62.07023336 18 58 C16.56521531 55.44166192 15.04669734 52.93540953 13.53515625 50.421875 C12.78882292 49.14841796 12.04467707 47.87367635 11.30273438 46.59765625 C10.93494873 45.96617676 10.56716309 45.33469727 10.18823242 44.68408203 C9.81674072 44.04583496 9.44524902 43.40758789 9.0625 42.75 C7.55513532 40.16043289 6.04577956 37.57204223 4.53515625 34.984375 C3.879104 33.85741211 3.22305176 32.73044922 2.54711914 31.56933594 C1.23186994 29.15153497 1.23186994 29.15153497 0 28 C-0.08767112 25.92737924 -0.10695873 23.85179706 -0.09765625 21.77734375 C-0.09443359 20.51728516 -0.09121094 19.25722656 -0.08789062 17.95898438 C-0.07953403 16.61848891 -0.07106907 15.27799412 -0.0625 13.9375 C-0.0574866 12.59310058 -0.05292342 11.2486994 -0.04882812 9.90429688 C-0.03699488 6.60282059 -0.02050971 3.30143197 0 0 Z " fill="#FD586D" transform="translate(30,99)"/>
<path d="M0 0 C0.66 0 1.32 0 2 0 C3.52418401 2.64191896 5.04836118 5.28384186 6.57250977 7.92578125 C7.91272941 10.24876287 9.25304442 12.57168918 10.59350586 14.89453125 C13.76804018 20.39588274 16.94188764 25.89762129 20.11073303 31.4022522 C21.11578067 33.14804826 22.12119178 34.89363451 23.12670898 36.63916016 C24.38474962 38.82331798 25.64211197 41.00786668 26.89868164 43.19287109 C30.16394848 48.85990802 33.48299914 54.48115656 36.93139648 60.0390625 C38 62 38 62 38 64 C37.04633545 64.50450684 36.0926709 65.00901367 35.11010742 65.52880859 C31.57018964 67.40203357 28.0313885 69.27735947 24.49291992 71.15332031 C22.96164818 71.96476623 21.4300747 72.77564301 19.89819336 73.5859375 C17.69565421 74.7511057 15.49421029 75.9183201 13.29296875 77.0859375 C12.60849167 77.44746918 11.92401459 77.80900085 11.21879578 78.18148804 C8.38542768 79.68657909 5.67217036 81.21855309 3 83 C-1.39054587 82.68925789 -4.52370093 81.42570072 -8.30078125 79.234375 C-9.27853516 78.67363281 -10.25628906 78.11289063 -11.26367188 77.53515625 C-12.26978516 76.94605469 -13.27589844 76.35695313 -14.3125 75.75 C-16.30846301 74.59873164 -18.30455505 73.44768695 -20.30078125 72.296875 C-21.25678223 71.74193359 -22.2127832 71.18699219 -23.19775391 70.61523438 C-27.10573542 68.36264632 -31.04733487 66.17300569 -35 64 C-35 60.47400087 -34.15383374 59.12846975 -32.4296875 56.08203125 C-31.86967041 55.08647217 -31.30965332 54.09091309 -30.73266602 53.06518555 C-30.11963623 51.99179932 -29.50660645 50.91841309 -28.875 49.8125 C-28.24843506 48.70495361 -27.62187012 47.59740723 -26.97631836 46.45629883 C-20.96477455 35.86203105 -14.84903332 25.32701005 -8.65673828 14.83740234 C-7.4554674 12.78005337 -6.27407034 10.71105867 -5.10498047 8.63525391 C-4.16936279 6.98468994 -4.16936279 6.98468994 -3.21484375 5.30078125 C-2.64757568 4.28798096 -2.08030762 3.27518066 -1.49584961 2.23168945 C-0.75540405 1.12700317 -0.75540405 1.12700317 0 0 Z " fill="#810010" transform="translate(99,21)"/>
<path d="M0 0 C4.20210061 0.72401819 8.38097133 1.54092441 12.5625 2.375 C14.33463867 2.67857422 14.33463867 2.67857422 16.14257812 2.98828125 C22.17097032 4.23786395 26.20916595 5.31693337 29.87890625 10.453125 C30.95486206 12.281601 31.9940656 14.13208636 33 16 C34.19211848 17.96808408 35.3875633 19.93415628 36.5859375 21.8984375 C37.85253965 24.05519245 39.11540355 26.21414606 40.375 28.375 C41.77077523 30.75417377 43.17018459 33.13119815 44.5703125 35.5078125 C44.92855103 36.11645142 45.28678955 36.72509033 45.65588379 37.35217285 C50.49126906 45.55186484 55.45646597 53.67308892 60.41552734 61.79833984 C70 77.51981488 70 77.51981488 70 80 C57.81939099 80.92253447 46.38707728 81.23955881 35 76.3125 C34.20754883 75.99289307 33.41509766 75.67328613 32.59863281 75.34399414 C25.66120038 71.98862982 22.65271626 66.43718217 19.02801514 59.85214233 C17.62201958 57.31900465 16.14398457 54.83083684 14.66812134 52.33796692 C12.78381149 49.15118658 10.92485305 45.94964451 9.0625 42.75 C7.55513532 40.16043289 6.04577956 37.57204223 4.53515625 34.984375 C3.879104 33.85741211 3.22305176 32.73044922 2.54711914 31.56933594 C1.23186994 29.15153497 1.23186994 29.15153497 0 28 C-0.08767112 25.92737924 -0.10695873 23.85179706 -0.09765625 21.77734375 C-0.09443359 20.51728516 -0.09121094 19.25722656 -0.08789062 17.95898438 C-0.07953403 16.61848891 -0.07106907 15.27799412 -0.0625 13.9375 C-0.0574866 12.59310058 -0.05292342 11.2486994 -0.04882812 9.90429688 C-0.03699488 6.60282059 -0.02050971 3.30143197 0 0 Z " fill="#810010" transform="translate(30,99)"/>
<path d="M0 0 C4.00915568 1.25274635 7.65523717 2.72546466 11.37109375 4.6796875 C12.35787109 5.19660156 13.34464844 5.71351562 14.36132812 6.24609375 C15.37646484 6.78363281 16.39160156 7.32117188 17.4375 7.875 C18.44876953 8.40480469 19.46003906 8.93460938 20.50195312 9.48046875 C21.49001953 9.99996094 22.47808594 10.51945312 23.49609375 11.0546875 C24.44983887 11.55452148 25.40358398 12.05435547 26.38623047 12.56933594 C28.62195213 13.793073 30.71783096 15.11368119 32.84765625 16.5078125 C35.88075421 18.35287893 35.88075421 18.35287893 38.85913086 17.27661133 C41.86872042 16.0533588 44.5932342 14.68713534 47.40625 13.06640625 C48.39753906 12.49986328 49.38882813 11.93332031 50.41015625 11.34960938 C51.42980469 10.75986328 52.44945312 10.17011719 53.5 9.5625 C70.14232673 0 70.14232673 0 74 0 C72.67251074 3.57083088 71.08489016 6.67665564 69.05078125 9.89453125 C68.45692627 10.83893066 67.86307129 11.78333008 67.2512207 12.75634766 C66.61144287 13.76487793 65.97166504 14.7734082 65.3125 15.8125 C63.95818137 17.96214385 62.60401944 20.11188643 61.25 22.26171875 C60.55132812 23.36821777 59.85265625 24.4747168 59.1328125 25.61474609 C55.03526771 32.11057354 50.98529001 38.63633846 46.92504883 45.15551758 C44.01510203 49.81709833 41.08535239 54.45235901 38 59 C34.05815259 57.50507704 32.67416689 55.37878388 30.53125 51.8203125 C29.88333496 50.75546631 29.23541992 49.69062012 28.56787109 48.59350586 C27.87838984 47.43745107 27.18910364 46.28127992 26.5 45.125 C25.78686947 43.94550066 25.07283146 42.76654954 24.35791016 41.58813477 C22.22554748 38.06649456 20.11168618 34.53407851 18 31 C16.29521035 28.15396109 14.59019161 25.30805999 12.88476562 22.46240234 C11.91377597 20.83853833 10.94605397 19.21271356 9.98242188 17.58447266 C7.18970833 12.885313 4.24373862 8.33928731 1.12353516 3.84985352 C0 2 0 2 0 0 Z " fill="#FE596D" transform="translate(63,98)"/>
<path d="M0 0 C2.76109847 21.75895518 -1.45390846 34.0114704 -13.80725098 51.375 C-16.02018641 54.49545962 -17.94813664 57.60742577 -19.65234375 61.03125 C-24.59270807 70.83785138 -30.0013852 74.32297474 -40.39770508 77.97363281 C-42.58967749 78.68665158 -44.78426685 79.3652747 -47 80 C-45.43317586 75.65820438 -43.22840384 71.80362677 -40.859375 67.86328125 C-40.45471008 67.18379929 -40.05004517 66.50431732 -39.63311768 65.804245 C-38.34210661 63.63830322 -37.04613436 61.47537896 -35.75 59.3125 C-34.89420406 57.87845042 -34.03873226 56.44420734 -33.18359375 55.00976562 C-32.76621948 54.31084198 -32.34884521 53.61191833 -31.91882324 52.89181519 C-31.0915444 51.50453375 -30.26640729 50.11597276 -29.44348145 48.72610474 C-27.69333186 45.77941793 -25.92227725 42.88366474 -24.01757812 40.03271484 C-20.54812359 34.9262511 -20.54812359 34.9262511 -19.93359375 28.96875 C-20.35500458 26.99957865 -20.35500458 26.99957865 -21 25 C-21.22059082 24.23816406 -21.44118164 23.47632812 -21.66845703 22.69140625 C-22.41283516 20.27254487 -23.22440713 17.8878841 -24.0625 15.5 C-24.34416016 14.67757812 -24.62582031 13.85515625 -24.91601562 13.0078125 C-25.60377243 11.00282657 -26.30091076 9.00106277 -27 7 C-21.41442288 5.08736299 -15.8296588 3.33490894 -10.125 1.8125 C-9.15046875 1.54663086 -9.15046875 1.54663086 -8.15625 1.27539062 C-5.34145662 0.52535823 -2.92792661 0 0 0 Z " fill="#810111" transform="translate(170,99)"/>
<path d="M0 0 C2.92286755 3.65358444 5.1410259 6.76403776 7.3984375 10.76953125 C8.03628174 11.89472168 8.67412598 13.01991211 9.33129883 14.17919922 C10.01254223 15.39029403 10.69377574 16.60139442 11.375 17.8125 C12.80123226 20.33325374 14.23063088 22.85220642 15.66015625 25.37109375 C16.20101112 26.3254129 16.20101112 26.3254129 16.75279236 27.29901123 C20.95064394 34.69573734 25.25360604 42.03042608 29.56982422 49.35864258 C32.20137124 53.84278928 34.76260856 58.30540322 37 63 C32.64378147 61.62979964 28.56588807 59.96350711 24.4296875 58.03125 C23.82617462 57.75027466 23.22266174 57.46929932 22.6008606 57.17980957 C20.69080528 56.28957748 18.78291708 55.39480394 16.875 54.5 C15.58737313 53.89945316 14.29961383 53.29919018 13.01171875 52.69921875 C8.31832824 50.50940065 3.63273992 48.31636996 -1 46 C-0.67 30.82 -0.34 15.64 0 0 Z " fill="#800010" transform="translate(100,21)"/>
<path d="M0 0 C0.33 0 0.66 0 1 0 C1 15.18 1 30.36 1 46 C-18.94021739 55.9701087 -18.94021739 55.9701087 -25.375 59.0625 C-26.19226563 59.46404297 -27.00953125 59.86558594 -27.8515625 60.27929688 C-29.01945312 60.83907227 -29.01945312 60.83907227 -30.2109375 61.41015625 C-30.89462402 61.74152588 -31.57831055 62.07289551 -32.28271484 62.41430664 C-32.84941895 62.60758545 -33.41612305 62.80086426 -34 63 C-34.66 62.67 -35.32 62.34 -36 62 C-35.6596875 61.41959961 -35.319375 60.83919922 -34.96875 60.24121094 C-27.06334972 46.74841671 -19.234666 33.21581841 -11.5078125 19.62011719 C-8.56748752 14.45504633 -5.61426018 9.29837351 -2.59375 4.1796875 C-2.11615234 3.36999512 -1.63855469 2.56030273 -1.14648438 1.72607422 C-0.76814453 1.15646973 -0.38980469 0.58686523 0 0 Z " fill="#FE586D" transform="translate(99,21)"/>
<path d="M0 0 C-1.32748926 3.57083088 -2.91510984 6.67665564 -4.94921875 9.89453125 C-5.54307373 10.83893066 -6.13692871 11.78333008 -6.7487793 12.75634766 C-7.38855713 13.76487793 -8.02833496 14.7734082 -8.6875 15.8125 C-10.04181863 17.96214385 -11.39598056 20.11188643 -12.75 22.26171875 C-13.44867188 23.36821777 -14.14734375 24.4747168 -14.8671875 25.61474609 C-18.96473229 32.11057354 -23.01470999 38.63633846 -27.07495117 45.15551758 C-33.54200817 55.5154006 -33.54200817 55.5154006 -36 59 C-36.33 59 -36.66 59 -37 59 C-37 45.8 -37 32.6 -37 19 C-19.25271739 8.85869565 -19.25271739 8.85869565 -12.3125 5 C-11.44689453 4.51144531 -10.58128906 4.02289063 -9.68945312 3.51953125 C-8.85994141 3.05933594 -8.03042969 2.59914063 -7.17578125 2.125 C-6.44270752 1.71507813 -5.70963379 1.30515625 -4.9543457 0.8828125 C-3 0 -3 0 0 0 Z " fill="#800010" transform="translate(137,98)"/>
<path d="M0 0 C1.85598719 0.42971132 3.70971264 0.86919505 5.5625 1.3125 C7.11130859 1.67794922 7.11130859 1.67794922 8.69140625 2.05078125 C15.7377922 4.07235361 19.74019716 5.91877096 23.375 12.375 C23.76929199 13.04039795 24.16358398 13.7057959 24.56982422 14.39135742 C25.49691242 15.96192366 26.41492259 17.53786706 27.32617188 19.11767578 C28.94646408 21.9078114 30.59450267 24.67930245 32.25192261 27.44744873 C33.82242031 30.07162228 35.38556649 32.70012481 36.94708252 35.32965088 C37.73185883 36.65070524 38.51795005 37.97097936 39.30535889 39.29046631 C40.42136308 41.16495539 41.52826231 43.04452577 42.6328125 44.92578125 C43.28137207 46.02317627 43.92993164 47.12057129 44.59814453 48.2512207 C46 51 46 51 46 54 C42.8035023 52.84058462 39.65277187 51.58556449 36.5 50.3125 C35.613125 49.99216797 34.72625 49.67183594 33.8125 49.34179688 C25.9975727 46.09515428 22.91837156 41.15724545 19.00384521 33.84567261 C17.62898721 31.31785485 16.15070683 28.8572513 14.67141724 26.38954163 C13.16082131 23.86711461 11.67502576 21.33045057 10.18823242 18.79394531 C9.04195727 16.83998246 7.89114363 14.88873609 6.74023438 12.9375 C6.00493372 11.68505702 5.26989725 10.43245889 4.53515625 9.1796875 C3.879104 8.06319824 3.22305176 6.94670898 2.54711914 5.79638672 C1 3 1 3 0 0 Z " fill="#FD576C" transform="translate(30,125)"/>
<path d="M0 0 C4.61924621 0.92384924 8.29847998 2.37183363 12.48828125 4.37890625 C13.5430793 4.87619484 13.5430793 4.87619484 14.6191864 5.38352966 C16.85277997 6.4380161 19.08264821 7.50012751 21.3125 8.5625 C22.83114031 9.28110616 24.35001808 9.99921071 25.86914062 10.71679688 C29.58220221 12.47206752 33.291943 14.23418316 37 16 C33.74893564 18.59679323 30.32485076 20.54123239 26.66015625 22.50390625 C26.05618515 22.82785873 25.45221405 23.15181122 24.8299408 23.48558044 C23.55749369 24.1670501 22.28416506 24.84687604 21.01000977 25.52514648 C19.06999478 26.55850786 17.13346527 27.59818272 15.19726562 28.63867188 C13.95593233 29.30246339 12.71440228 29.96588715 11.47265625 30.62890625 C9.79055054 31.5271814 9.79055054 31.5271814 8.07446289 32.44360352 C5 34 5 34 0 36 C0 24.12 0 12.24 0 0 Z " fill="#FE586D" transform="translate(100,68)"/>
<path d="M0 0 C0 8.58 0 17.16 0 26 C-12.625 30 -12.625 30 -16 30 C-16.28875 30.639375 -16.5775 31.27875 -16.875 31.9375 C-18 34 -18 34 -20 35 C-19.9278125 34.07058594 -19.855625 33.14117187 -19.78125 32.18359375 C-19.78125 26.83396895 -21.73429525 22.04942288 -23.5 17.0625 C-23.83386719 16.09248047 -24.16773438 15.12246094 -24.51171875 14.12304688 C-25.33165943 11.74521891 -26.16125277 9.37124549 -27 7 C-21.41442288 5.08736299 -15.8296588 3.33490894 -10.125 1.8125 C-9.15046875 1.54663086 -9.15046875 1.54663086 -8.15625 1.27539062 C-5.34145662 0.52535823 -2.92792661 0 0 0 Z " fill="#820111" transform="translate(170,99)"/>
<path d="M0 0 C4.31729618 0.91627509 8.62772746 1.86151733 12.9375 2.8125 C14.16919922 3.07353516 15.40089844 3.33457031 16.66992188 3.60351562 C17.83974609 3.86455078 19.00957031 4.12558594 20.21484375 4.39453125 C21.29886475 4.63018799 22.38288574 4.86584473 23.49975586 5.10864258 C24.32483643 5.40279053 25.14991699 5.69693848 26 6 C27.20171204 9.60513612 26.70719075 10.43559272 25.34765625 13.88671875 C24.98349609 14.82451172 24.61933594 15.76230469 24.24414062 16.72851562 C23.85419922 17.70498047 23.46425781 18.68144531 23.0625 19.6875 C22.67642578 20.67556641 22.29035156 21.66363281 21.89257812 22.68164062 C20.93667875 25.12449459 19.97221707 27.56360441 19 30 C18.34 30 17.68 30 17 30 C15.70016939 28.11910865 14.49816727 26.1704109 13.33984375 24.19921875 C12.81494102 23.31095146 12.81494102 23.31095146 12.2794342 22.40473938 C11.53885167 21.14825215 10.8018447 19.88965177 10.06811523 18.62915039 C8.94583607 16.70181586 7.81284512 14.78112763 6.67773438 12.86132812 C1.15688139 3.47064418 1.15688139 3.47064418 0 0 Z " fill="#FC576C" transform="translate(30,99)"/>
<path d="M0 0 C0.33 0 0.66 0 1 0 C1 7.92 1 15.84 1 24 C-1.59875 24.845625 -4.1975 25.69125 -6.875 26.5625 C-7.69210449 26.83263916 -8.50920898 27.10277832 -9.35107422 27.38110352 C-14.77777778 29.11111111 -14.77777778 29.11111111 -17 28 C-14.74158177 24.17196023 -12.4812087 20.34508403 -10.21899414 16.51928711 C-9.44924567 15.21687335 -8.68003805 13.91413979 -7.91137695 12.61108398 C-6.80821549 10.74118619 -5.7031319 8.8724366 -4.59765625 7.00390625 C-3.93258057 5.87799072 -3.26750488 4.7520752 -2.58227539 3.59204102 C-1 1 -1 1 0 0 Z " fill="#FB566B" transform="translate(169,101)"/>
</svg>
